<?xml version="1.0" encoding="UTF-8"?>
<svg version="1.1" xmlns="http://www.w3.org/2000/svg" width="225" height="225">
<path d="M0 0 C74.25 0 148.5 0 225 0 C225 74.25 225 148.5 225 225 C150.75 225 76.5 225 0 225 C0 150.75 0 76.5 0 0 Z " fill="#FDFDFE" transform="translate(0,0)"/>
<path d="M0 0 C23.76 0 47.52 0 72 0 C72 30.36 72 60.72 72 92 C70.02 92.33 68.04 92.66 66 93 C66.33 93.99 66.66 94.98 67 96 C67.03954234 98.33299825 67.04401732 100.66708189 67 103 C69.64 103 72.28 103 75 103 C74.99355469 102.20722656 74.98710937 101.41445312 74.98046875 100.59765625 C75.79225598 86.73600631 82.97558509 69.72171758 93 60 C94.19027984 57.40084462 94.19027984 57.40084462 95 55 C98.15330554 55.60694155 100.18888867 56.6416665 102.75 58.5625 C103.36359375 59.01753906 103.9771875 59.47257812 104.609375 59.94140625 C105.06828125 60.29074219 105.5271875 60.64007813 106 61 C90.41402189 93.34743502 90.41402189 93.34743502 79 102 C82.96 102.33 86.92 102.66 91 103 C89.00597986 109.90237742 89.00597986 109.90237742 86 112 C83.41782229 112.28042473 81.07981085 112.37931036 78.49926758 112.34057617 C77.3574427 112.34123329 77.3574427 112.34123329 76.19255066 112.34190369 C73.67628334 112.33981353 71.16068218 112.31647235 68.64453125 112.29296875 C66.90004338 112.28737359 65.15555079 112.28310311 63.41105652 112.28010559 C58.81929513 112.26865049 54.22781836 112.23917765 49.63616943 112.20599365 C44.95084483 112.17530707 40.26547425 112.16160328 35.58007812 112.14648438 C26.38659369 112.11430854 17.19332051 112.06310418 8 112 C8 112.99 8 113.98 8 115 C5.36 115 2.72 115 0 115 C-0.33 114.01 -0.66 113.02 -1 112 C-6.94 112.33 -12.88 112.66 -19 113 C-19 113.66 -19 114.32 -19 115 C-20.65 115 -22.3 115 -24 115 C-24 114.34 -24 113.68 -24 113 C-25.65 112.67 -27.3 112.34 -29 112 C-29 110.68 -29 109.36 -29 108 C-29.66 108 -30.32 108 -31 108 C-31 104 -31 104 -29 102 C-28.3574765 99.93125966 -28.3574765 99.93125966 -28 98 C-27.01 98 -26.02 98 -25 98 C-29.72118034 80.16697435 -29.72118034 80.16697435 -34.8125 62.4375 C-38.20507426 51.0345297 -38.20507426 51.0345297 -39 46 C-37 44 -37 44 -33.37646484 43.77294922 C-31.82125316 43.77344977 -30.2660184 43.78451228 -28.7109375 43.8046875 C-27.98559814 43.80670166 -27.26025879 43.80871582 -26.51293945 43.81079102 C-23.80022875 43.8212648 -21.08760811 43.84918739 -18.375 43.875 C-12.31125 43.91625 -6.2475 43.9575 0 44 C0 29.48 0 14.96 0 0 Z " fill="#1B55A8" transform="translate(72,49)"/>
<path d="M0 0 C2.55200533 1.76570631 4.85507121 3.76926469 7.1875 5.8125 C18.60435409 15.40594909 29.91432487 20.11566086 45 19 C52.07889596 17.48378354 55.9964226 14.21701901 60.82421875 9.03125 C69.19611178 1.21547913 80.29954419 -0.93797101 91.39453125 -1.02734375 C99.11111446 -0.6769983 106.62907444 0.32262666 112.0625 6.25 C113.6078311 10.78297123 114.02951078 14.65639144 112.09472656 19.06079102 C108.87037556 24.76616636 105.21504939 29.97582826 101.25 35.1875 C85.5284613 54.95681497 85.5284613 54.95681497 82 79 C83.30785906 82.59075284 84.99349974 85.75670614 87 89 C87.33 89.66 87.66 90.32 88 91 C87.22729492 92.76489258 87.22729492 92.76489258 85.98046875 94.89453125 C85.53566162 95.67965088 85.09085449 96.46477051 84.63256836 97.27368164 C84.1556958 98.1114917 83.67882324 98.94930176 83.1875 99.8125 C78.8253601 107.71761615 76.69925282 113.96922417 76 123 C75.67 123.66 75.34 124.32 75 125 C72.36 125 69.72 125 67 125 C66.67 121.7 66.34 118.4 66 115 C67.98 114.67 69.96 114.34 72 114 C72 83.64 72 53.28 72 22 C48.24 22 24.48 22 0 22 C0 36.52 0 51.04 0 66 C-11.88 66 -23.76 66 -36 66 C-36 65.67 -36 65.34 -36 65 C-34.48019531 65.04833984 -34.48019531 65.04833984 -32.9296875 65.09765625 C-25.32934423 65.30158752 -25.32934423 65.30158752 -18.73828125 62.10546875 C-17.20513155 59.77678041 -16.04552253 57.5825656 -15 55 C-14.62488281 54.26265625 -14.24976562 53.5253125 -13.86328125 52.765625 C-11.16176581 44.11099634 -13.99868286 38.03600413 -18 30.3125 C-22.17872499 21.70983662 -25.1322315 14.69196137 -23 5 C-21.75209664 1.66402072 -20.04348824 -0.20838823 -17.1875 -2.375 C-11.02998067 -4.13429124 -5.61972899 -2.73132181 0 0 Z " fill="#E4EDFC" transform="translate(72,27)"/>
<path d="M0 0 C3.15330554 0.60694155 5.18888867 1.6416665 7.75 3.5625 C8.36359375 4.01753906 8.9771875 4.47257812 9.609375 4.94140625 C10.29773438 5.46541016 10.29773438 5.46541016 11 6 C-4.58597811 38.34743502 -4.58597811 38.34743502 -16 47 C-12.04 47.33 -8.08 47.66 -4 48 C-5.98468485 54.87006293 -5.98468485 54.87006293 -9 57 C-12.17008972 57.36076355 -12.17008972 57.36076355 -16.13354492 57.34057617 C-17.21684837 57.34123329 -17.21684837 57.34123329 -18.32203674 57.34190369 C-20.70845605 57.33981414 -23.09417223 57.31647613 -25.48046875 57.29296875 C-27.13527543 57.28737336 -28.79008708 57.283103 -30.44490051 57.28010559 C-34.79993414 57.26865224 -39.15466751 57.23918098 -43.50958252 57.20599365 C-47.95361265 57.17530326 -52.39769131 57.16160247 -56.84179688 57.14648438 C-65.56133569 57.11431162 -74.28063049 57.06310952 -83 57 C-82.67 56.2575 -82.34 55.515 -82 54.75 C-80.77217129 51.86116688 -80.77217129 51.86116688 -81 48 C-79.515 47.505 -79.515 47.505 -78 47 C-78 45.35 -78 43.7 -78 42 C-77.01 42 -76.02 42 -75 42 C-75 42.66 -75 43.32 -75 44 C-68.93053418 43.95592199 -62.86211609 43.88616768 -56.79321289 43.79248047 C-54.7281935 43.76423478 -52.66306526 43.74303822 -50.59790039 43.72900391 C-47.63110485 43.70762416 -44.6656229 43.66099991 -41.69921875 43.609375 C-40.31158577 43.60753204 -40.31158577 43.60753204 -38.8959198 43.60565186 C-33.87893465 43.64662429 -33.87893465 43.64662429 -29.89379883 40.96191406 C-29.45136841 39.9907666 -29.45136841 39.9907666 -29 39 C-27.5216774 41.95664519 -27.93967217 44.74229737 -28 48 C-25.36 48 -22.72 48 -20 48 C-20.00966797 46.81083984 -20.00966797 46.81083984 -20.01953125 45.59765625 C-19.20774402 31.73600631 -12.02441491 14.72171758 -2 5 C-0.80972016 2.40084462 -0.80972016 2.40084462 0 0 Z " fill="#093D9B" transform="translate(167,104)"/>
<path d="M0 0 C11.55 0 23.1 0 35 0 C35.0458927 5.49947576 35.08572355 10.99828811 35.10986328 16.49780273 C35.11992567 18.36891938 35.13357691 20.24002028 35.15087891 22.11108398 C35.17511684 24.79935591 35.18648063 27.48742006 35.1953125 30.17578125 C35.20563507 31.01337479 35.21595764 31.85096832 35.22659302 32.71394348 C35.22774341 38.65838488 35.22774341 38.65838488 33 42 C32.401875 41.773125 31.80375 41.54625 31.1875 41.3125 C28.96094026 40.75549896 28.96094026 40.75549896 27.1875 42.125 C25.71600254 44.01353208 25.71600254 44.01353208 26.3125 46.6875 C26.539375 47.450625 26.76625 48.21375 27 49 C25.02 49.495 25.02 49.495 23 50 C23 50.66 23 51.32 23 52 C19.7 51.34 16.4 50.68 13 50 C11.14003875 43.68534023 9.28887916 37.36819209 7.44580078 31.04858398 C6.81767696 28.89944064 6.18716086 26.75099497 5.55419922 24.60327148 C4.64439969 21.51466632 3.74325497 18.42364793 2.84375 15.33203125 C2.55939087 14.37351761 2.27503174 13.41500397 1.98205566 12.42744446 C1.72178589 11.52688828 1.46151611 10.62633209 1.19335938 9.69848633 C0.96241577 8.91016922 0.73147217 8.12185211 0.49353027 7.30964661 C0 5 0 5 0 0 Z " fill="#F0F5FE" transform="translate(37,96)"/>
<path d="M0 0 C2.625 -0.1875 2.625 -0.1875 5 0 C5.495 1.98 5.495 1.98 6 4 C6.928125 3.79375 7.85625 3.5875 8.8125 3.375 C12 3 12 3 15 5 C14.67 6.65 14.34 8.3 14 10 C14.66 9.34 15.32 8.68 16 8 C18.02481079 7.75949097 18.02481079 7.75949097 20.54150391 7.77294922 C21.48232819 7.77310028 22.42315247 7.77325134 23.39248657 7.77340698 C24.41023163 7.78372955 25.42797668 7.79405212 26.4765625 7.8046875 C27.51694672 7.8075174 28.55733093 7.81034729 29.62924194 7.81326294 C32.96127694 7.82448296 36.29304586 7.84959085 39.625 7.875 C41.88020446 7.88502744 44.13541312 7.8941537 46.390625 7.90234375 C51.92717454 7.92442822 57.46356827 7.95792361 63 8 C63 9.98 63 11.96 63 14 C48.81 14 34.62 14 20 14 C20 13.34 20 12.68 20 12 C19.34 12.33 18.68 12.66 18 13 C17.34444881 15.52733235 17.34444881 15.52733235 17 18 C16.01 18.33 15.02 18.66 14 19 C14.226875 19.763125 14.45375 20.52625 14.6875 21.3125 C15 24 15 24 13.8125 25.8125 C12 27 12 27 8 27 C8 27.99 8 28.98 8 30 C5.36 30 2.72 30 0 30 C-0.33 29.01 -0.66 28.02 -1 27 C-6.94 27.33 -12.88 27.66 -19 28 C-19 28.66 -19 29.32 -19 30 C-20.65 30 -22.3 30 -24 30 C-24 29.34 -24 28.68 -24 28 C-25.65 27.67 -27.3 27.34 -29 27 C-29 25.68 -29 24.36 -29 23 C-29.66 23 -30.32 23 -31 23 C-31 19 -31 19 -29 17 C-28.3574765 14.93125966 -28.3574765 14.93125966 -28 13 C-27.01 13 -26.02 13 -25 13 C-24.67 12.34 -24.34 11.68 -24 11 C-18.06 12.485 -18.06 12.485 -12 14 C-12 13.34 -12 12.68 -12 12 C-11.01 11.67 -10.02 11.34 -9 11 C-9.2475 10.2575 -9.495 9.515 -9.75 8.75 C-10 6 -10 6 -8.3125 3.625 C-6 2 -6 2 -3.75 2.25 C-3.1725 2.4975 -2.595 2.745 -2 3 C-1.34 2.01 -0.68 1.02 0 0 Z " fill="#2871CB" transform="translate(72,134)"/>
<path d="M0 0 C4.47566183 1.21215841 4.47566183 1.21215841 6 3.8125 C5.6875 6.8125 5.6875 6.8125 5 9.8125 C5 10.8025 5 11.7925 5 12.8125 C5.66 13.4725 6.32 14.1325 7 14.8125 C7.125 17.4375 7.125 17.4375 7 19.8125 C5.02 20.8025 5.02 20.8025 3 21.8125 C2.34 20.4925 1.68 19.1725 1 17.8125 C0.01 17.8125 -0.98 17.8125 -2 17.8125 C-2 19.4625 -2 21.1125 -2 22.8125 C-0.9275 22.874375 0.145 22.93625 1.25 23 C5 23.8125 5 23.8125 7.25 25.6875 C9.85861786 30.34574617 9.19050548 34.41934402 8.75 39.625 C8.68425781 40.60404297 8.61851562 41.58308594 8.55078125 42.59179688 C8.38626852 45.00073332 8.20211749 47.4064756 8 49.8125 C6.22950311 49.86660687 4.45853151 49.90534119 2.6875 49.9375 C1.20830078 49.97230469 1.20830078 49.97230469 -0.30078125 50.0078125 C-3 49.8125 -3 49.8125 -6 47.8125 C-5.67 43.5225 -5.34 39.2325 -5 34.8125 C-3.35 34.8125 -1.7 34.8125 0 34.8125 C0 33.8225 0 32.8325 0 31.8125 C-0.72445312 31.57015625 -1.44890625 31.3278125 -2.1953125 31.078125 C-7.66914611 29.18052935 -12.37235947 27.31449824 -17 23.8125 C-15.23996481 19.04613443 -12.91985682 14.61502211 -10.5625 10.125 C-10.16740234 9.35349609 -9.77230469 8.58199219 -9.36523438 7.78710938 C-8.97787109 7.04912109 -8.59050781 6.31113281 -8.19140625 5.55078125 C-7.84279541 4.88087158 -7.49418457 4.21096191 -7.13500977 3.52075195 C-5.12499485 0.49556926 -3.57212208 -0.22325763 0 0 Z " fill="#1262D8" transform="translate(186,77.1875)"/>
<path d="M0 0 C3.40476269 2.67853568 4.0867985 5.83009602 5.26171875 9.8984375 C5.45723831 10.57041168 5.65275787 11.24238586 5.85420227 11.9347229 C6.26470115 13.35388763 6.67037536 14.77445565 7.0715332 16.19628906 C7.68433886 18.36381886 8.31452998 20.52571473 8.94726562 22.6875 C12.26994194 34.24290988 12.26994194 34.24290988 12 39 C10.515 39.495 10.515 39.495 9 40 C8.67 41.65 8.34 43.3 8 45 C-0.12340144 42.96914964 -6.17983214 37.66317322 -11 31 C-13.51651082 26.5661476 -13.64341895 21.9718737 -13 17 C-10.93139545 9.73905921 -5.39128252 4.97656848 0 0 Z " fill="#E5EEFD" transform="translate(35,108)"/>
<path d="M0 0 C3.15330554 0.60694155 5.18888867 1.6416665 7.75 3.5625 C8.67039062 4.24505859 8.67039062 4.24505859 9.609375 4.94140625 C10.29773438 5.46541016 10.29773438 5.46541016 11 6 C-4.58597811 38.34743502 -4.58597811 38.34743502 -16 47 C-12.04 47.33 -8.08 47.66 -4 48 C-4 48.33 -4 48.66 -4 49 C-5.58941406 49.05607422 -5.58941406 49.05607422 -7.2109375 49.11328125 C-8.59899424 49.17893258 -9.98701349 49.24538021 -11.375 49.3125 C-12.07367188 49.33505859 -12.77234375 49.35761719 -13.4921875 49.38085938 C-15.77288941 49.46984296 -15.77288941 49.46984296 -19 50 C-19.66 50.99 -20.32 51.98 -21 53 C-23.7885289 53.22107787 -26.34653181 53.28107535 -29.125 53.1875 C-30.25615234 53.16719727 -30.25615234 53.16719727 -31.41015625 53.14648438 C-33.27374127 53.11109985 -35.13695978 53.05729167 -37 53 C-37.66 51.35 -38.32 49.7 -39 48 C-32.43507888 47.21558847 -26.53162622 46.89085592 -20 48 C-20.00644531 47.20722656 -20.01289063 46.41445312 -20.01953125 45.59765625 C-19.20774402 31.73600631 -12.02441491 14.72171758 -2 5 C-0.80972016 2.40084462 -0.80972016 2.40084462 0 0 Z " fill="#1262D8" transform="translate(167,104)"/>
<path d="M0 0 C23.76 0 47.52 0 72 0 C72 2.97 72 5.94 72 9 C48.24 9 24.48 9 0 9 C0 6.03 0 3.06 0 0 Z " fill="#13326E" transform="translate(72,49)"/>
<path d="M0 0 C2.4077492 2.11590081 3.73981767 3.8886759 5.0625 6.8125 C5.0625 8.4625 5.0625 10.1125 5.0625 11.8125 C0.7725 11.8125 -3.5175 11.8125 -7.9375 11.8125 C-7.9375 16.1025 -7.9375 20.3925 -7.9375 24.8125 C-14.53270928 23.71329845 -15.44518512 23.09587 -19.9375 18.8125 C-21.79256839 15.10236322 -21.39084699 10.86157177 -20.9375 6.8125 C-16.67425325 -1.7139935 -8.67026969 -3.50500264 0 0 Z " fill="#EFF4FD" transform="translate(99.9375,65.1875)"/>
<path d="M0 0 C3.8622225 0.14574425 6.23909127 0.3634833 9.24609375 2.87890625 C11.86187108 7.53370823 11.19049463 11.60697216 10.75 16.8125 C10.68425781 17.79154297 10.61851562 18.77058594 10.55078125 19.77929688 C10.38626852 22.18823332 10.20211749 24.5939756 10 27 C8.22950311 27.05410687 6.45853151 27.09284119 4.6875 27.125 C3.20830078 27.15980469 3.20830078 27.15980469 1.69921875 27.1953125 C-1 27 -1 27 -4 25 C-3.67 20.71 -3.34 16.42 -3 12 C-1.35 12 0.3 12 2 12 C2 11.01 2 10.02 2 9 C0.02 8.34 -1.96 7.68 -4 7 C-1.125 1.125 -1.125 1.125 0 0 Z " fill="#13316C" transform="translate(184,100)"/>
<path d="M0 0 C0.66 0.33 1.32 0.66 2 1 C-11.4110262 28.98635371 -11.4110262 28.98635371 -23 38 C-19.04 38.33 -15.08 38.66 -11 39 C-11 39.33 -11 39.66 -11 40 C-12.58941406 40.05607422 -12.58941406 40.05607422 -14.2109375 40.11328125 C-15.59899424 40.17893258 -16.98701349 40.24538021 -18.375 40.3125 C-19.07367188 40.33505859 -19.77234375 40.35761719 -20.4921875 40.38085938 C-22.77288941 40.46984296 -22.77288941 40.46984296 -26 41 C-26.66 41.99 -27.32 42.98 -28 44 C-30.7885289 44.22107787 -33.34653181 44.28107535 -36.125 44.1875 C-37.25615234 44.16719727 -37.25615234 44.16719727 -38.41015625 44.14648438 C-40.27374127 44.11109985 -42.13695978 44.05729167 -44 44 C-44.66 42.35 -45.32 40.7 -46 39 C-39.43507888 38.21558847 -33.53162622 37.89085592 -27 39 C-26.34 36.03 -25.68 33.06 -25 30 C-24.28328125 29.97292969 -23.5665625 29.94585937 -22.828125 29.91796875 C-18.74702562 28.59330252 -17.08194173 25.71186504 -14.75 22.3125 C-14.04363403 21.31657837 -14.04363403 21.31657837 -13.32299805 20.30053711 C-8.66724155 13.67506759 -4.28630169 6.86866616 0 0 Z " fill="#1F60C3" transform="translate(174,113)"/>
<path d="M0 0 C15.51 0 31.02 0 47 0 C47 1.98 47 3.96 47 6 C32.81 6 18.62 6 4 6 C3.67 5.34 3.34 4.68 3 4 C0.98330173 2.86649466 0.98330173 2.86649466 -1 2 C-0.67 1.34 -0.34 0.68 0 0 Z " fill="#ECF1FB" transform="translate(88,142)"/>
<path d="M0 0 C3.96 0 7.92 0 12 0 C12 12.87 12 25.74 12 39 C9.0512966 35.06839547 8.0767518 32.60758751 6.73828125 27.96875 C6.54276169 27.29581909 6.34724213 26.62288818 6.14579773 25.92956543 C5.73595545 24.5119926 5.33025483 23.09321653 4.9284668 21.67333984 C4.31372322 19.50431592 3.68430095 17.33995922 3.05273438 15.17578125 C0 4.56423568 0 4.56423568 0 0 Z " fill="#D7DEE8" transform="translate(60,96)"/>
<path d="M0 0 C3.3 0.66 6.6 1.32 10 2 C10 3.65 10 5.3 10 7 C10.66 7.33 11.32 7.66 12 8 C12 9.32 12 10.64 12 12 C11.01 12.495 11.01 12.495 10 13 C10 14.32 10 15.64 10 17 C8.68 17 7.36 17 6 17 C6 17.66 6 18.32 6 19 C4.35 19 2.7 19 1 19 C1 18.34 1 17.68 1 17 C-0.65 16.67 -2.3 16.34 -4 16 C-4 14.68 -4 13.36 -4 12 C-4.66 12 -5.32 12 -6 12 C-6 8 -6 8 -4 6 C-3.3574765 3.93125966 -3.3574765 3.93125966 -3 2 C-2.01 2 -1.02 2 0 2 C0 1.34 0 0.68 0 0 Z " fill="#3374C8" transform="translate(47,145)"/>
<path d="M0 0 C2.31 0 4.62 0 7 0 C7 11.22 7 22.44 7 34 C4.69 34 2.38 34 0 34 C0 22.78 0 11.56 0 0 Z " fill="#EDF2FC" transform="translate(127,100)"/>
<path d="M0 0 C0.99 0.33 1.98 0.66 3 1 C4.17077726 4.02621957 4.22680772 7.15477425 4.3125 10.375 C4.34988281 11.29023438 4.38726562 12.20546875 4.42578125 13.1484375 C3.83581512 17.09958679 2.74771763 19.09318135 0 22 C-3.08571711 22.2912223 -5.25465061 22.27720239 -8.25 21.875 C-8.99507812 21.80023438 -9.74015625 21.72546875 -10.5078125 21.6484375 C-12.34163705 21.46035293 -14.17145233 21.233884 -16 21 C-13.82769601 18.1750725 -12.00889519 16.0065747 -9.125 13.875 C-4.64404934 10.34282206 -2.47698732 5.01546015 0 0 Z " fill="#E6EFFE" transform="translate(166,131)"/>
<path d="M0 0 C2.31 0 4.62 0 7 0 C7 8.25 7 16.5 7 25 C4.69 25 2.38 25 0 25 C0 16.75 0 8.5 0 0 Z " fill="#E6ECF8" transform="translate(94,109)"/>
<path d="M0 0 C2.31 0 4.62 0 7 0 C7 7.92 7 15.84 7 24 C4.69 24 2.38 24 0 24 C0 16.08 0 8.16 0 0 Z " fill="#ECF2FC" transform="translate(116,110)"/>
<path d="M0 0 C6.27 0 12.54 0 19 0 C19.33 0.66 19.66 1.32 20 2 C18.31525278 5.36949443 17.1808342 6.87944386 14 9 C11.23344676 9.14245897 8.57346694 9.18769445 5.8125 9.125 C5.06291016 9.11597656 4.31332031 9.10695312 3.54101562 9.09765625 C1.69387346 9.07412578 -0.15310412 9.03825561 -2 9 C-1.505 7.88625 -1.505 7.88625 -1 6.75 C0.22782871 3.86116688 0.22782871 3.86116688 0 0 Z " fill="#0A53BD" transform="translate(86,152)"/>
<path d="M0 0 C4.62 0 9.24 0 14 0 C12.8 7.2 12.8 7.2 9 11 C5.72675616 12.93722595 3.8148669 14 0 14 C0 9.38 0 4.76 0 0 Z " fill="#EECE1B" transform="translate(93,78)"/>
<path d="M0 0 C1.98 0 3.96 0 6 0 C6 6.27 6 12.54 6 19 C4.02 19 2.04 19 0 19 C0 12.73 0 6.46 0 0 Z " fill="#F5F8FF" transform="translate(84,114)"/>
<path d="M0 0 C2.78698143 2.78698143 3.34874287 6.04550358 4.3828125 9.74609375 C4.60194305 10.51301041 4.82107361 11.27992706 5.04684448 12.07008362 C5.50882957 13.69239351 5.96757902 15.31562778 6.42333984 16.93969727 C7.12186572 19.42634244 7.83157369 21.90958782 8.54296875 24.39257812 C8.99025126 25.96856059 9.43688755 27.54472663 9.8828125 29.12109375 C10.09527618 29.86491806 10.30773987 30.60874237 10.52664185 31.37510681 C11.35541434 34.34387337 12 36.90161493 12 40 C11.01 39.67 10.02 39.34 9 39 C8.0031434 36.53192055 7.21207971 34.1893314 6.484375 31.640625 C6.26428772 30.89923279 6.04420044 30.15784058 5.81744385 29.39398193 C5.35430081 27.82205374 4.89741703 26.24827001 4.44628906 24.67285156 C3.75531661 22.26850001 3.0394277 19.87262671 2.3203125 17.4765625 C1.87347681 15.94836121 1.42811607 14.41972773 0.984375 12.890625 C0.76988708 12.17585999 0.55539917 11.46109497 0.33441162 10.72467041 C-0.77038947 6.79990042 -1.22183807 3.92938534 0 0 Z " fill="#0D3E9D" transform="translate(38,106)"/>
<path d="M0 0 C23.76 0 47.52 0 72 0 C72 2.97 72 5.94 72 9 C71.67 9 71.34 9 71 9 C71 6.36 71 3.72 71 1 C53.51 1 36.02 1 18 1 C18 1.66 18 2.32 18 3 C16.02 3 14.04 3 12 3 C12 2.67 12 2.34 12 2 C8.37 1.67 4.74 1.34 1 1 C1 3.64 1 6.28 1 9 C0.67 9 0.34 9 0 9 C0 6.03 0 3.06 0 0 Z " fill="#002366" transform="translate(72,49)"/>
<path d="M0 0 C2.31 0 4.62 0 7 0 C7 4.29 7 8.58 7 13 C4.69 13 2.38 13 0 13 C0 8.71 0 4.42 0 0 Z " fill="#EBCE1D" transform="translate(105,121)"/>
<path d="M0 0 C1.65 0 3.3 0 5 0 C4.94199219 0.68707031 4.88398437 1.37414062 4.82421875 2.08203125 C4.68825636 4.79739443 4.62924059 7.30436098 5 10 C7.3726974 12.00864359 7.3726974 12.00864359 10 13 C10 13.99 10 14.98 10 16 C8.35 16 6.7 16 5 16 C5 15.34 5 14.68 5 14 C3.35 13.67 1.7 13.34 0 13 C0 11.68 0 10.36 0 9 C-0.66 9 -1.32 9 -2 9 C-2 5 -2 5 0 3 C0 2.01 0 1.02 0 0 Z " fill="#236BC4" transform="translate(43,148)"/>
<path d="M0 0 C6.74233419 -0.12910853 13.30386804 0.202163 20 1 C19.34 2.32 18.68 3.64 18 5 C12.72 5 7.44 5 2 5 C1.34 3.35 0.68 1.7 0 0 Z " fill="#0A54BE" transform="translate(128,152)"/>
<path d="M0 0 C0.66 0.33 1.32 0.66 2 1 C0.515 3.475 0.515 3.475 -1 6 C3.29 6 7.58 6 12 6 C12 7.32 12 8.64 12 10 C8.37 10.33 4.74 10.66 1 11 C1.99 12.485 1.99 12.485 3 14 C-1.875 12.25 -1.875 12.25 -3 10 C-3.30343947 6.51044604 -3.39470082 4.62494296 -1.5 1.625 C-1.005 1.08875 -0.51 0.5525 0 0 Z " fill="#073998" transform="translate(70,142)"/>
<path d="M0 0 C3.38813813 0.70951598 6.30666287 1.97412675 9.4375 3.4375 C12.92520144 5.06250693 16.41510916 6.6011769 20 8 C20 8.99 20 9.98 20 11 C16.30458414 11.95024979 13.69541586 11.95024979 10 11 C9.67 10.01 9.34 9.02 9 8 C6.91187542 6.54355243 6.91187542 6.54355243 4.4375 5.3125 C3.61121094 4.87550781 2.78492188 4.43851562 1.93359375 3.98828125 C1.29550781 3.66214844 0.65742188 3.33601563 0 3 C0 2.01 0 1.02 0 0 Z " fill="#ECC6A8" transform="translate(167,101)"/>
<path d="M0 0 C0.66 0.33 1.32 0.66 2 1 C-0.00211571 3.07361984 -1.78112159 4.86624097 -4.25 6.375 C-6.33556772 7.95315291 -6.33556772 7.95315291 -6.3125 11.0625 C-6.18075966 13.93021928 -6.18075966 13.93021928 -5 16 C-3.10466658 16.46523063 -3.10466658 16.46523063 -0.9375 16.625 C0.361875 16.74875 1.66125 16.8725 3 17 C3 13.04 3 9.08 3 5 C3.33 5 3.66 5 4 5 C4 9.29 4 13.58 4 18 C-6.625 18.25 -6.625 18.25 -10 16 C-9.67 11.71 -9.34 7.42 -9 3 C-7.35 3 -5.7 3 -4 3 C-1.71515694 1.60042803 -1.71515694 1.60042803 0 0 Z " fill="#0A2361" transform="translate(190,109)"/>
<path d="M0 0 C0.99 0 1.98 0 3 0 C3.33 0.99 3.66 1.98 4 3 C6.00016466 4.20882096 6.00016466 4.20882096 8 5 C7.67 6.65 7.34 8.3 7 10 C9.31 10.66 11.62 11.32 14 12 C14 12.33 14 12.66 14 13 C9.71 13 5.42 13 1 13 C0.67 11.68 0.34 10.36 0 9 C0.99 9 1.98 9 3 9 C3 7.68 3 6.36 3 5 C2.01 4.67 1.02 4.34 0 4 C0 2.68 0 1.36 0 0 Z " fill="#0743A0" transform="translate(56,148)"/>
<path d="M0 0 C1.875 1.3125 1.875 1.3125 3 3 C3 3.99 3 4.98 3 6 C-1.29 6 -5.58 6 -10 6 C-7.48676795 -0.28308012 -6.45227645 -0.52671644 0 0 Z " fill="#E5EBF6" transform="translate(79,142)"/>
<path d="M0 0 C7.75 0.75 7.75 0.75 10 3 C10.125 5.625 10.125 5.625 10 8 C8.02 8.99 8.02 8.99 6 10 C5.62875 9.0409375 5.62875 9.0409375 5.25 8.0625 C4.18437567 5.81258459 4.18437567 5.81258459 1.875 5.25 C1.25625 5.1675 0.6375 5.085 0 5 C0 3.35 0 1.7 0 0 Z " fill="#112E6B" transform="translate(183,89)"/>
<path d="M0 0 C1.65 0 3.3 0 5 0 C5 0.66 5 1.32 5 2 C7.64 2 10.28 2 13 2 C13 2.66 13 3.32 13 4 C13.66 4 14.32 4 15 4 C14.67 4.99 14.34 5.98 14 7 C10 7 6 7 2 7 C2 5.02 2 3.04 2 1 C1.34 0.67 0.68 0.34 0 0 Z " fill="#6A779F" transform="translate(80,189)"/>
<path d="M0 0 C0.99 0 1.98 0 3 0 C3 0.66 3 1.32 3 2 C16.86 2 30.72 2 45 2 C45 2.33 45 2.66 45 3 C31.14 3 17.28 3 3 3 C3 3.99 3 4.98 3 6 C2.01 5.67 1.02 5.34 0 5 C0 3.35 0 1.7 0 0 Z " fill="#032988" transform="translate(89,146)"/>
<path d="M0 0 C0.99 0.66 1.98 1.32 3 2 C2.5020163 5.73487777 2.12508244 7.81237635 0 11 C-2.97 10.505 -2.97 10.505 -6 10 C-5.34 9.67 -4.68 9.34 -4 9 C-3.7834375 7.576875 -3.7834375 7.576875 -3.5625 6.125 C-2.9801943 2.88996834 -2.51806487 1.97065946 0 0 Z " fill="#1057C0" transform="translate(189,79)"/>
<path d="M0 0 C1.32 0 2.64 0 4 0 C3.979375 1.051875 3.95875 2.10375 3.9375 3.1875 C3.85361198 6.85584817 3.85361198 6.85584817 4.6875 9.75 C4.790625 10.4925 4.89375 11.235 5 12 C3.51953125 13.640625 3.51953125 13.640625 2 15 C1.46706165 13.25364835 0.94909337 11.50272348 0.4375 9.75 C0.14746094 8.77546875 -0.14257812 7.8009375 -0.44140625 6.796875 C-0.99249836 4.03756068 -0.93789609 2.6087176 0 0 Z " fill="#1644A0" transform="translate(34,94)"/>
<path d="M0 0 C0.66 0 1.32 0 2 0 C2.45732667 5.71658336 1.52273754 8.48649253 -2 13 C-2.99 12.34 -3.98 11.68 -5 11 C-3.35 7.37 -1.7 3.74 0 0 Z " fill="#1257BC" transform="translate(182,94)"/>
<path d="M0 0 C2.125 0.375 2.125 0.375 4 1 C5.125 4.75 5.125 4.75 4 7 C2.35 6.67 0.7 6.34 -1 6 C-1.625 4.125 -1.625 4.125 -2 2 C-1.34 1.34 -0.68 0.68 0 0 Z " fill="#FDD924" transform="translate(105,203)"/>
<path d="M0 0 C3.63 0 7.26 0 11 0 C10.34 1.32 9.68 2.64 9 4 C5.375 4.75 5.375 4.75 2 5 C1.34 3.35 0.68 1.7 0 0 Z " fill="#0C54BA" transform="translate(70,152)"/>
<path d="M0 0 C2.125 0.9375 2.125 0.9375 4 2 C3.67 3.65 3.34 5.3 3 7 C1.35 6.67 -0.3 6.34 -2 6 C-2 4.35 -2 2.7 -2 1 C-1.34 0.67 -0.68 0.34 0 0 Z " fill="#E7F0FF" transform="translate(94,203)"/>
<path d="M0 0 C1.32 0.66 2.64 1.32 4 2 C3.67 3.65 3.34 5.3 3 7 C1.35 6.67 -0.3 6.34 -2 6 C-1.125 1.125 -1.125 1.125 0 0 Z " fill="#152C6C" transform="translate(129,203)"/>
<path d="M0 0 C0.804375 0.185625 1.60875 0.37125 2.4375 0.5625 C3.283125 0.706875 4.12875 0.85125 5 1 C5.33 0.67 5.66 0.34 6 0 C7.32 0 8.64 0 10 0 C10 1.65 10 3.3 10 5 C7.69 5 5.38 5 3 5 C3 3.68 3 2.36 3 1 C2.34 1 1.68 1 1 1 C0.67 2.32 0.34 3.64 0 5 C0 3.35 0 1.7 0 0 Z " fill="#596792" transform="translate(119,191)"/>
<path d="M0 0 C2.0625 0.4375 2.0625 0.4375 4 1 C3.67 1.66 3.34 2.32 3 3 C3.89363605 5.60931266 3.89363605 5.60931266 5 8 C3.33388095 8.042721 1.66617115 8.04063832 0 8 C-1 7 -1 7 -1.125 4 C-1 1 -1 1 0 0 Z " fill="#E1E9F7" transform="translate(48,151)"/>
<path d="M0 0 C1.2065625 0.0309375 1.2065625 0.0309375 2.4375 0.0625 C2.4375 1.7125 2.4375 3.3625 2.4375 5.0625 C0.7875 5.3925 -0.8625 5.7225 -2.5625 6.0625 C-2.94468767 4.40635343 -3.27645102 2.73792976 -3.5625 1.0625 C-2.5625 0.0625 -2.5625 0.0625 0 0 Z " fill="#1551A7" transform="translate(118.5625,203.9375)"/>
<path d="M0 0 C2.35953094 2.35953094 2.49141413 3.77895617 3 7 C-1 7 -1 7 -3 6 C-3 4.35 -3 2.7 -3 1 C-2.01 0.67 -1.02 0.34 0 0 Z " fill="#DBBCA8" transform="translate(187,94)"/>
<path d="M0 0 C1.32 0 2.64 0 4 0 C4 1.98 4 3.96 4 6 C2.68 6.33 1.36 6.66 0 7 C-1.04449911 3.86650268 -0.93423645 3.01031744 0 0 Z " fill="#757FA5" transform="translate(131,191)"/>
<path d="M0 0 C1.98 0.99 1.98 0.99 4 2 C4.33 1.34 4.66 0.68 5 0 C5.66 0 6.32 0 7 0 C7 2.31 7 4.62 7 7 C6.21625 6.814375 5.4325 6.62875 4.625 6.4375 C2.02910225 5.74037734 2.02910225 5.74037734 0 7 C0 4.69 0 2.38 0 0 Z " fill="#626E98" transform="translate(105,189)"/>
<path d="M0 0 C0.66 0.33 1.32 0.66 2 1 C1.01 2.485 1.01 2.485 0 4 C-0.37478243 7.52295483 -0.41127245 9.34881863 1.5 12.375 C1.995 12.91125 2.49 13.4475 3 14 C-1.875 12.25 -1.875 12.25 -3 10 C-3.30343947 6.51044604 -3.39470082 4.62494296 -1.5 1.625 C-1.005 1.08875 -0.51 0.5525 0 0 Z " fill="#0C2B68" transform="translate(70,142)"/>
<path d="M0 0 C1.65 0 3.3 0 5 0 C4.67 3.3 4.34 6.6 4 10 C1.7448078 7.7448078 1.02276532 5.9952413 0 3 C0 2.01 0 1.02 0 0 Z " fill="#225CAB" transform="translate(43,148)"/>
<path d="M0 0 C0.66 0.33 1.32 0.66 2 1 C-0.83430453 4.2542015 -2.68607774 5.5206753 -7 6 C-7.33 7.98 -7.66 9.96 -8 12 C-8.33 12 -8.66 12 -9 12 C-9 9.03 -9 6.06 -9 3 C-7.88625 3.0928125 -7.88625 3.0928125 -6.75 3.1875 C-3.54616994 2.96905704 -2.35968744 2.09749995 0 0 Z " fill="#071B5A" transform="translate(190,109)"/>
<path d="M0 0 C1.65 0 3.3 0 5 0 C5.33 0.66 5.66 1.32 6 2 C6.99 2.66 7.98 3.32 9 4 C4.25 7 4.25 7 2 7 C2 5.02 2 3.04 2 1 C1.34 0.67 0.68 0.34 0 0 Z " fill="#8E9CB8" transform="translate(80,189)"/>
<path d="M0 0 C1.9375 0.75 1.9375 0.75 4 2 C4.8125 4 4.8125 4 5 6 C4.67 6.66 4.34 7.32 4 8 C3.01 7.67 2.02 7.34 1 7 C0.09162237 4.52260646 0 2.66420516 0 0 Z " fill="#0953BA" transform="translate(50,150)"/>
<path d="M0 0 C3.15330554 0.60694155 5.18888867 1.6416665 7.75 3.5625 C8.67039063 4.24505859 8.67039063 4.24505859 9.609375 4.94140625 C10.29773438 5.46541016 10.29773438 5.46541016 11 6 C10.67 6.66 10.34 7.32 10 8 C8 8 8 8 5.5625 5.6875 C4.716875 4.800625 3.87125 3.91375 3 3 C2.401875 2.401875 1.80375 1.80375 1.1875 1.1875 C0.795625 0.795625 0.40375 0.40375 0 0 Z " fill="#0F4DB1" transform="translate(167,104)"/>
<path d="M0 0 C1.65 0 3.3 0 5 0 C5 0.99 5 1.98 5 3 C4.34 3.66 3.68 4.32 3 5 C1.33333333 5 -0.33333333 5 -2 5 C-2 4.01 -2 3.02 -2 2 C-1.34 2 -0.68 2 0 2 C0 1.34 0 0.68 0 0 Z " fill="#7587A9" transform="translate(81,50)"/>
<path d="M0 0 C1.98 0.495 1.98 0.495 4 1 C4 2.32 4 3.64 4 5 C2.35 4.67 0.7 4.34 -1 4 C-0.67 2.68 -0.34 1.36 0 0 Z " fill="#6E7AA2" transform="translate(137,191)"/>
<path d="M0 0 C0.66 0 1.32 0 2 0 C2.625 3.375 2.625 3.375 3 7 C2.34 7.66 1.68 8.32 1 9 C0.01 8.67 -0.98 8.34 -2 8 C-1.67 7.4225 -1.34 6.845 -1 6.25 C0.27075898 3.80116138 0.27075898 3.80116138 0 0 Z " fill="#0C2E6E" transform="translate(86,152)"/>
<path d="M0 0 C0.66 0.33 1.32 0.66 2 1 C0.68 3.64 -0.64 6.28 -2 9 C-2.99 8.67 -3.98 8.34 -5 8 C-3.35 5.36 -1.7 2.72 0 0 Z " fill="#0E56C0" transform="translate(174,113)"/>
<path d="M0 0 C0 0.99 0 1.98 0 3 C-2.64 3 -5.28 3 -8 3 C-5.53387212 -0.1151089 -3.89156016 -0.31553191 0 0 Z " fill="#2F4377" transform="translate(180,161)"/>
<path d="M0 0 C1.32 0 2.64 0 4 0 C4 1.65 4 3.3 4 5 C2.68 5 1.36 5 0 5 C0 3.35 0 1.7 0 0 Z " fill="#485589" transform="translate(125,191)"/>
<path d="M0 0 C0.66 0.99 1.32 1.98 2 3 C1.125 5.6875 1.125 5.6875 0 8 C-0.33 8 -0.66 8 -1 8 C-1.625 5.125 -1.625 5.125 -2 2 C-1.34 1.34 -0.68 0.68 0 0 Z " fill="#2A55A8" transform="translate(37,101)"/>
<path d="M0 0 C1.32 0 2.64 0 4 0 C4.33 1.32 4.66 2.64 5 4 C4.01 4.495 4.01 4.495 3 5 C2.01 4.34 1.02 3.68 0 3 C0 2.01 0 1.02 0 0 Z " fill="#868E6E" transform="translate(119,90)"/>
<path d="M0 0 C2.475 0.495 2.475 0.495 5 1 C5 1.99 5 2.98 5 4 C3.68 4 2.36 4 1 4 C0.67 2.68 0.34 1.36 0 0 Z " fill="#7997CB" transform="translate(128,61)"/>
</svg>
