<?xml version="1.0" encoding="UTF-8"?>
<svg version="1.1" xmlns="http://www.w3.org/2000/svg" width="225" height="225">
<path d="M0 0 C74.25 0 148.5 0 225 0 C225 74.25 225 148.5 225 225 C150.75 225 76.5 225 0 225 C0 150.75 0 76.5 0 0 Z " fill="#FDFDFD" transform="translate(0,0)"/>
<path d="M0 0 C1.65 0.33 3.3 0.66 5 1 C4.125 5.875 4.125 5.875 3 7 C3.05220703 8.10794922 3.05220703 8.10794922 3.10546875 9.23828125 C3.40688875 20.53435464 -2.29768346 28.00493701 -8.21484375 37.18017578 C-11.34352861 42.12223133 -14.25611709 47.18931418 -17.1875 52.25 C-17.77805176 53.26143066 -18.36860352 54.27286133 -18.97705078 55.31494141 C-21.60237917 59.8189586 -24.20178896 64.33244605 -26.7109375 68.90234375 C-27.11417236 69.63485352 -27.51740723 70.36736328 -27.93286133 71.12207031 C-28.65434819 72.44123583 -29.36850028 73.76445727 -30.07299805 75.09277344 C-31.71222782 78.09587899 -33.28024467 80.27306913 -35.74609375 82.67578125 C-38.46410979 84.93898725 -38.46410979 84.93898725 -38 89 C-37.67 89.33 -37.34 89.66 -37 90 C-37 90.66 -37 91.32 -37 92 C-36.67 91.34 -36.34 90.68 -36 90 C-35.34 90 -34.68 90 -34 90 C-34 90.66 -34 91.32 -34 92 C-30.58562009 90.68771164 -27.36375391 89.19698288 -24.125 87.5 C-18.6920834 84.75928761 -14.17353005 83 -8 83 C-8.495 84.485 -8.495 84.485 -9 86 C-11.3359375 86.95703125 -11.3359375 86.95703125 -14.375 87.8125 C-23.1543522 90.55082176 -31.36108712 94.53579536 -38 101 C-38.495 102.485 -38.495 102.485 -39 104 C-37.66961551 104.3449145 -36.33542939 104.67516582 -35 105 C-33.9171875 105.37125 -33.9171875 105.37125 -32.8125 105.75 C-26.12021092 106.34487014 -19.20818804 102.33108922 -13.1640625 99.76953125 C-11 99 -11 99 -8 99 C-8 99.99 -8 100.98 -8 102 C-8.85722656 102.31453125 -9.71445313 102.6290625 -10.59765625 102.953125 C-20.53695086 106.67335703 -28.88813101 109.83219652 -35 119 C-34.67 119.66 -34.34 120.32 -34 121 C-34.99 121 -35.98 121 -37 121 C-37.33 121.66 -37.66 122.32 -38 123 C-38.66 123 -39.32 123 -40 123 C-40.66 123.99 -41.32 124.98 -42 126 C-41.34 126 -40.68 126 -40 126 C-39.34 126.66 -38.68 127.32 -38 128 C-37.67 127.67 -37.34 127.34 -37 127 C-36.0925 127.0825 -35.185 127.165 -34.25 127.25 C-29.15000912 127.35515445 -24.78909554 125.11871519 -20.13671875 123.24609375 C-12.29384022 120.13042968 -6.93567273 120 2 120 C2 99.87 2 79.74 2 59 C-9.3810513 60.73131743 -9.3810513 60.73131743 -20 64 C-18.69086773 60.07260319 -17.21009805 57.64361016 -14 55 C-11.24825283 54.11510056 -8.77016177 53.88052908 -5.890625 53.90234375 C-5.13652344 53.90556641 -4.38242188 53.90878906 -3.60546875 53.91210938 C-2.82816406 53.92048828 -2.05085938 53.92886719 -1.25 53.9375 C-0.45722656 53.94201172 0.33554688 53.94652344 1.15234375 53.95117188 C3.10159508 53.96291435 5.05080738 53.98084854 7 54 C7 56.97 7 59.94 7 63 C8.299375 63.144375 9.59875 63.28875 10.9375 63.4375 C14.875 63.875 14.875 63.875 16 65 C16.09443335 67.30053835 16.11742128 69.60402173 16.11352539 71.90649414 C16.11367142 72.62840439 16.11381744 73.35031464 16.1139679 74.09410095 C16.11326869 76.49114947 16.10547595 78.88812123 16.09765625 81.28515625 C16.0957921 82.94282489 16.09436818 84.60049407 16.09336853 86.25816345 C16.08954312 90.62954214 16.07971265 95.00088781 16.06866455 99.37225342 C16.05845092 103.82954461 16.05387101 108.28684111 16.04882812 112.74414062 C16.0380904 121.49610893 16.02101371 130.24805036 16 139 C14.91968506 138.83991455 13.83937012 138.6798291 12.72631836 138.51489258 C-6.50872359 135.85704658 -24.39746175 140.40892949 -40.6875 150.9375 C-41.780625 151.618125 -42.87375 152.29875 -44 153 C-44.66 152.67 -45.32 152.34 -46 152 C-37.42194136 142.36798194 -27.11338675 137.06425558 -15 133 C-14.31550781 132.7525 -13.63101563 132.505 -12.92578125 132.25 C-5.90975071 130.05844165 4.07052402 129.69017467 11 132 C11 110.88 11 89.76 11 68 C9.02 67.505 9.02 67.505 7 67 C7 86.8 7 106.6 7 127 C-1.91 127.99 -1.91 127.99 -11 129 C-28.33465766 133.71502688 -41.93614897 141.66567141 -52.203125 156.51171875 C-53.69004528 158.57078009 -55.14115485 160.28458426 -57 162 C-57.47308594 161.31035156 -57.94617188 160.62070313 -58.43359375 159.91015625 C-69.90119331 143.61409372 -83.44794592 133.27856654 -103 129 C-110.92 128.01 -110.92 128.01 -119 127 C-119 103.24 -119 79.48 -119 55 C-97.83541081 55 -76.97619043 59.85780249 -61.4375 75.3125 C-60.28333728 76.5338489 -59.1358825 77.76163186 -58 79 C-57.01 79.99 -57.01 79.99 -56 81 C-54.62389399 79.48016736 -53.24917938 77.95907486 -51.875 76.4375 C-51.05515625 75.53128906 -50.2353125 74.62507813 -49.390625 73.69140625 C-47.40807712 71.45942016 -45.50770118 69.19034211 -43.625 66.875 C-42.75875 65.92625 -41.8925 64.9775 -41 64 C-40.01 64 -39.02 64 -38 64 C-37.60167969 62.70872192 -37.60167969 62.70872192 -37.1953125 61.39135742 C-35.99477859 57.98518575 -34.54448954 54.9387024 -32.875 51.73828125 C-32.57195953 51.15399353 -32.26891907 50.56970581 -31.95669556 49.9677124 C-30.97605808 48.08002352 -29.988833 46.19590749 -29 44.3125 C-27.97408777 42.355186 -26.9484061 40.39775167 -25.92300415 38.44017029 C-25.24096719 37.13822993 -24.55833129 35.83660315 -23.87509155 34.53529358 C-21.89026519 30.74386558 -19.96832626 26.9295816 -18.1015625 23.078125 C-10.88819323 8.35820503 -10.88819323 8.35820503 -3.8125 5.03515625 C-1.52847974 3.73070502 -0.96214117 2.40034178 0 0 Z " fill="#151F3E" transform="translate(169,26)"/>
<path d="M0 0 C18.60743751 1.69158523 36.38070616 7.5570077 50 21 C50.57517868 21.55639664 51.15035736 22.11279327 51.7429657 22.68605042 C57.96655151 29.51500478 57.92960291 35.77490903 57.68359375 44.66015625 C57.67051179 46.0597433 57.66055991 47.45936275 57.65357971 48.85899353 C57.62705595 52.51438413 57.55847985 56.16777761 57.48065186 59.8223877 C57.4085963 63.56295768 57.37697889 67.30385554 57.34179688 71.04492188 C57.26708438 78.36418444 57.14787269 85.68181072 57 93 C54.43635253 90.45781808 52.01179171 87.88752332 49.6875 85.125 C36.40320303 70.02667088 19.28448208 65.50626947 0 62 C0 41.54 0 21.08 0 0 Z " fill="#F5F7F8" transform="translate(53,83)"/>
<path d="M0 0 C0 20.46 0 40.92 0 62 C1.98 61.34 3.96 60.68 6 60 C25.52446123 56.45009796 44.33802164 60.60488585 60.6640625 71.83203125 C62.8336801 73.49733974 64.92497734 75.21897439 67 77 C67.59683594 77.47695312 68.19367188 77.95390625 68.80859375 78.4453125 C71.37519827 80.50105808 73.1584197 82.23762955 75 85 C75.99 85 76.98 85 78 85 C78.639375 84.195625 79.27875 83.39125 79.9375 82.5625 C89.78395868 70.21811965 107.17473626 62.11793492 122.4609375 59.39453125 C133.04578544 58.21454268 142.41121457 59.07476629 153 61 C153 40.87 153 20.74 153 0 C157.27615798 1.06903949 159.64182849 2.16680082 163 5 C163.7215271 8.06256104 163.7215271 8.06256104 163.68115234 11.69628906 C163.68246658 12.69202942 163.68246658 12.69202942 163.68380737 13.70788574 C163.67963769 15.89500989 163.63302796 18.07903923 163.5859375 20.265625 C163.57474283 21.78446782 163.56620392 23.30333234 163.56021118 24.82220459 C163.53733317 28.81437298 163.47842169 32.80522552 163.4119873 36.796875 C163.35054085 40.87221475 163.32319131 44.94776775 163.29296875 49.0234375 C163.22867492 57.01622797 163.12631086 65.00795018 163 73 C162.21005646 72.99214478 161.42011292 72.98428955 160.60623169 72.97619629 C156.9692774 72.94469456 153.33235198 72.92540071 149.6953125 72.90625 C148.45305908 72.89368164 147.21080566 72.88111328 145.9309082 72.86816406 C126.10537997 72.79008519 108.20793016 78.07700329 89.49169922 84.21557617 C87 85 87 85 84.74267578 85.48168945 C82.78312776 85.84996155 82.78312776 85.84996155 81.8125 88 C81.544375 88.66 81.27625 89.32 81 90 C80 91 80 91 76.625 91.25 C73 91 73 91 71.0625 89.625 C70 88 70 88 70 86 C69.40936768 85.82404297 68.81873535 85.64808594 68.21020508 85.46679688 C63.63484472 84.0994991 59.06803147 82.71080828 54.51171875 81.28125 C36.83917345 75.81855216 20.36225835 72.78421399 1.83984375 72.93359375 C0.69511597 72.93838745 -0.44961182 72.94318115 -1.62902832 72.94812012 C-4.41941651 72.96050242 -7.20967489 72.97788395 -10 73 C-10.18563237 64.3682 -10.32763973 55.7370902 -10.41449738 47.10372734 C-10.45619301 43.09447446 -10.5127093 39.08659015 -10.60351562 35.078125 C-10.69065627 31.20710004 -10.73831646 27.33738818 -10.75901794 23.46545792 C-10.77376279 21.99093069 -10.80255957 20.51647281 -10.84584045 19.04250717 C-11.17089417 7.51037245 -11.17089417 7.51037245 -8.23608398 3.72467041 C-5.59303547 1.67217758 -3.41744043 0 0 0 Z " fill="#122040" transform="translate(36,108)"/>
<path d="M0 0 C2.475 0.495 2.475 0.495 5 1 C4.125 5.875 4.125 5.875 3 7 C3.05220703 8.10794922 3.05220703 8.10794922 3.10546875 9.23828125 C3.40688875 20.53435464 -2.29768346 28.00493701 -8.21484375 37.18017578 C-11.34352861 42.12223133 -14.25611709 47.18931418 -17.1875 52.25 C-17.77805176 53.26143066 -18.36860352 54.27286133 -18.97705078 55.31494141 C-21.60237917 59.8189586 -24.20178896 64.33244605 -26.7109375 68.90234375 C-27.31578979 70.0011084 -27.31578979 70.0011084 -27.93286133 71.12207031 C-28.65434819 72.44123583 -29.36850028 73.76445727 -30.07299805 75.09277344 C-31.71222782 78.09587899 -33.28024467 80.27306913 -35.74609375 82.67578125 C-38.46410979 84.93898725 -38.46410979 84.93898725 -38 89 C-37.505 89.495 -37.505 89.495 -37 90 C-37 90.66 -37 91.32 -37 92 C-36.67 91.34 -36.34 90.68 -36 90 C-35.34 90 -34.68 90 -34 90 C-34 90.66 -34 91.32 -34 92 C-30.58562009 90.68771164 -27.36375391 89.19698288 -24.125 87.5 C-18.6920834 84.75928761 -14.17353005 83 -8 83 C-8.495 84.485 -8.495 84.485 -9 86 C-11.3359375 86.95703125 -11.3359375 86.95703125 -14.375 87.8125 C-23.1543522 90.55082176 -31.36108712 94.53579536 -38 101 C-38.33 101.99 -38.66 102.98 -39 104 C-37.66961551 104.3449145 -36.33542939 104.67516582 -35 105 C-33.9171875 105.37125 -33.9171875 105.37125 -32.8125 105.75 C-26.12021092 106.34487014 -19.20818804 102.33108922 -13.1640625 99.76953125 C-11 99 -11 99 -8 99 C-8 99.99 -8 100.98 -8 102 C-9.28583984 102.47179687 -9.28583984 102.47179687 -10.59765625 102.953125 C-20.53695086 106.67335703 -28.88813101 109.83219652 -35 119 C-34.505 119.99 -34.505 119.99 -34 121 C-34.99 121 -35.98 121 -37 121 C-37.33 121.66 -37.66 122.32 -38 123 C-38.66 123 -39.32 123 -40 123 C-40.66 123.99 -41.32 124.98 -42 126 C-41.34 126 -40.68 126 -40 126 C-39.34 126.66 -38.68 127.32 -38 128 C-37.67 127.67 -37.34 127.34 -37 127 C-35.33382885 126.95936168 -33.66611905 126.957279 -32 127 C-32 127.66 -32 128.32 -32 129 C-33.64421131 130.26660762 -35.3427295 131.46305546 -37.0625 132.625 C-42.19309928 136.25862494 -46.13607477 140.07423272 -50 145 C-51.33259494 146.66725711 -52.66585322 148.33398442 -54 150 C-54.21066751 142.21029162 -54.36950082 134.42127829 -54.46630955 126.62941837 C-54.51283009 123.00914861 -54.57566361 119.39085877 -54.67895508 115.77172852 C-55.14808636 98.89501048 -55.05830456 85.25556287 -45 71 C-44.45158447 69.87859619 -43.90316895 68.75719238 -43.33813477 67.60180664 C-42.89655029 66.74321045 -42.45496582 65.88461426 -42 65 C-41.319375 64.835 -40.63875 64.67 -39.9375 64.5 C-39.298125 64.335 -38.65875 64.17 -38 64 C-37.3023392 62.01059962 -36.64197305 60.00806251 -36 58 C-34.99885294 55.89302513 -33.95389246 53.80652437 -32.875 51.73828125 C-32.4204393 50.86184967 -32.4204393 50.86184967 -31.95669556 49.9677124 C-30.97605808 48.08002352 -29.988833 46.19590749 -29 44.3125 C-27.97408777 42.355186 -26.9484061 40.39775167 -25.92300415 38.44017029 C-25.24096719 37.13822993 -24.55833129 35.83660315 -23.87509155 34.53529358 C-21.89026519 30.74386558 -19.96832626 26.9295816 -18.1015625 23.078125 C-10.88819323 8.35820503 -10.88819323 8.35820503 -3.8125 5.03515625 C-1.52847974 3.73070502 -0.96214117 2.40034178 0 0 Z " fill="#F6F8F9" transform="translate(169,26)"/>
<path d="M0 0 C0.33 0 0.66 0 1 0 C1 23.76 1 47.52 1 72 C4.63 72 8.26 72 12 72 C32.16548517 75.10683551 47.53403169 85.1079543 60 101 C61.175625 102.4540625 61.175625 102.4540625 62.375 103.9375 C62.91125 104.618125 63.4475 105.29875 64 106 C65.32 104.68 66.64 103.36 68 102 C69.485 102.99 69.485 102.99 71 104 C69.47291037 107.43595166 67.40072955 110.11912454 65 113 C63.25 112.8125 63.25 112.8125 61 112 C60.10667969 110.87271484 60.10667969 110.87271484 59.1953125 109.72265625 C49.07698434 97.17376883 31.48270874 89.66557975 16 87 C5.93746246 86.18047375 -2.86724534 87.55246362 -13 89 C-13 69.53 -13 50.06 -13 30 C-12.67 30 -12.34 30 -12 30 C-11.67 46.5 -11.34 63 -11 80 C-10.67 56.9 -10.34 33.8 -10 10 C-7.03 8.68 -4.06 7.36 -1 6 C0.21790719 2.883975 0.21790719 2.883975 0 0 Z " fill="#EAEFF2" transform="translate(49,81)"/>
<path d="M0 0 C2.475 0.495 2.475 0.495 5 1 C4.125 5.875 4.125 5.875 3 7 C3.05220703 8.10794922 3.05220703 8.10794922 3.10546875 9.23828125 C3.40688875 20.53435464 -2.29768346 28.00493701 -8.21484375 37.18017578 C-11.34356053 42.12228175 -14.25504335 47.18988712 -17.1875 52.25 C-17.78312744 53.26578125 -18.37875488 54.2815625 -18.99243164 55.328125 C-21.57273689 59.73985689 -24.11489596 64.15211506 -26.46484375 68.69140625 C-31.3143097 77.99603778 -36.78641146 84.44024739 -45 91 C-45.66 90.67 -46.32 90.34 -47 90 C-45.60807594 79.0965949 -42.67069298 70.23777277 -37.40332031 60.60253906 C-35.39882378 56.88508377 -33.47557953 53.12660739 -31.54690552 49.36950684 C-29.92137548 46.20378644 -28.29100124 43.04088724 -26.64501953 39.88574219 C-23.74413549 34.32476144 -20.8619114 28.76157713 -18.125 23.1171875 C-10.87999612 8.35435532 -10.87999612 8.35435532 -3.8125 5.03515625 C-1.52847974 3.73070502 -0.96214117 2.40034178 0 0 Z " fill="#18243E" transform="translate(169,26)"/>
<path d="M0 0 C0.66 0 1.32 0 2 0 C2.33 24.75 2.66 49.5 3 75 C3.66 75 4.32 75 5 75 C5 76.32 5 77.64 5 79 C4.08734375 78.89171875 4.08734375 78.89171875 3.15625 78.78125 C-19.59596767 76.37219166 -40.23366292 79.16678382 -58.8125 93.5 C-59.37582031 93.9846875 -59.93914062 94.469375 -60.51953125 94.96875 C-62 96 -62 96 -65 96 C-65.66 95.34 -66.32 94.68 -67 94 C-67.66 93.67 -68.32 93.34 -69 93 C-56.42958231 76.63936961 -40.63458133 66.22415333 -20 63 C-16.04 63 -12.08 63 -8 63 C-8 43.2 -8 23.4 -8 3 C-6.68 3.33 -5.36 3.66 -4 4 C-4 25.12 -4 46.24 -4 68 C-9.94 68 -15.88 68 -22 68 C-36.88565866 71.20811609 -49.26571401 77.09258037 -60 88 C-59.45214844 87.63648438 -58.90429688 87.27296875 -58.33984375 86.8984375 C-40.556031 75.62089771 -20.91076762 70.51487206 0 74 C0 49.58 0 25.16 0 0 Z " fill="#E6ECF2" transform="translate(184,90)"/>
<path d="M0 0 C3.91226597 17.50040401 1.88512722 35.35952091 0 53 C0.66 52.67 1.32 52.34 2 52 C2 51.34 2 50.68 2 50 C2.59683594 49.74476562 3.19367188 49.48953125 3.80859375 49.2265625 C6.23218436 47.87004298 7.36476471 46.55470106 9.0625 44.375 C15.83874496 36.42844408 24.66889866 30.21630046 35 28 C36.485 28.495 36.485 28.495 38 29 C37.0625 31.875 37.0625 31.875 35 35 C33.18359375 35.59765625 33.18359375 35.59765625 31 35.9375 C24.6674433 36.97579258 20.12282915 40.29162869 15 44 C14.10925781 44.61101562 13.21851563 45.22203125 12.30078125 45.8515625 C7.50824198 49.42506624 7.50824198 49.42506624 5.5859375 54.84765625 C5.63508044 57.78861375 5.63508044 57.78861375 6.07421875 60.58203125 C6 63 6 63 4.3125 64.77734375 C1.84791628 66.08040913 0.07724351 66.51236915 -2.6875 66.75 C-3.86892578 66.86601562 -3.86892578 66.86601562 -5.07421875 66.984375 C-5.70972656 66.98953125 -6.34523437 66.9946875 -7 67 C-8.68045607 65.31954393 -8.28516903 63.11611727 -8.4375 60.8125 C-8.7927968 56.60359947 -9.20938069 52.87967518 -11 49 C-11.99 48.34 -12.98 47.68 -14 47 C-14 46.34 -14 45.68 -14 45 C-14.66 44.773125 -15.32 44.54625 -16 44.3125 C-19.01780841 42.99220882 -21.6477673 41.34171064 -24.4140625 39.56640625 C-31.37891701 35.34751401 -38.69772177 31.59581882 -46 28 C-40.29195255 26.09731752 -33.50005858 28.82587523 -28 31 C-24.64981182 32.7676231 -21.6258112 34.93882362 -18.5859375 37.1953125 C-16.10479464 38.92686537 -13.79301084 39.8925957 -11 41 C-10.67 41.66 -10.34 42.32 -10 43 C-9.01 43.33 -8.02 43.66 -7 44 C-6.505 46.97 -6.505 46.97 -6 50 C-5.34 50 -4.68 50 -4 50 C-4.06928711 49.34330322 -4.13857422 48.68660645 -4.20996094 48.01000977 C-5.02659099 39.43612073 -5.21872761 30.9113022 -5.24023438 22.3059082 C-5.25011344 19.9099877 -5.28132657 17.5148673 -5.3125 15.11914062 C-5.31901644 13.58854668 -5.32427221 12.05794672 -5.328125 10.52734375 C-5.3404718 9.81488998 -5.3528186 9.10243622 -5.36553955 8.36839294 C-5.35218805 5.42427543 -5.33571048 3.47402367 -3.60449219 1.02954102 C-2 0 -2 0 0 0 Z " fill="#FDF5D7" transform="translate(110,28)"/>
<path d="M0 0 C0.75410156 0.00322266 1.50820312 0.00644531 2.28515625 0.00976562 C3.06246094 0.01814453 3.83976562 0.02652344 4.640625 0.03515625 C5.43339844 0.03966797 6.22617188 0.04417969 7.04296875 0.04882812 C8.99222008 0.0605706 10.94143238 0.07850479 12.890625 0.09765625 C12.890625 3.06765625 12.890625 6.03765625 12.890625 9.09765625 C14.19 9.24203125 15.489375 9.38640625 16.828125 9.53515625 C20.765625 9.97265625 20.765625 9.97265625 21.890625 11.09765625 C21.98505835 13.3981946 22.00804628 15.70167798 22.00415039 18.00415039 C22.00429642 18.72606064 22.00444244 19.44797089 22.0045929 20.1917572 C22.00389369 22.58880572 21.99610095 24.98577748 21.98828125 27.3828125 C21.9864171 29.04048114 21.98499318 30.69815032 21.98399353 32.3558197 C21.98016812 36.72719839 21.97033765 41.09854406 21.95928955 45.46990967 C21.94907592 49.92720086 21.94449601 54.38449736 21.93945312 58.84179688 C21.9287154 67.59376518 21.91163871 76.34570661 21.890625 85.09765625 C20.81031006 84.9375708 19.72999512 84.77748535 18.61694336 84.61254883 C-0.61809859 81.95470283 -18.50683675 86.50658574 -34.796875 97.03515625 C-35.89 97.71578125 -36.983125 98.39640625 -38.109375 99.09765625 C-38.769375 98.76765625 -39.429375 98.43765625 -40.109375 98.09765625 C-31.53131636 88.46563819 -21.22276175 83.16191183 -9.109375 79.09765625 C-8.42488281 78.85015625 -7.74039063 78.60265625 -7.03515625 78.34765625 C-0.01912571 76.1560979 9.96114902 75.78783092 16.890625 78.09765625 C16.890625 56.97765625 16.890625 35.85765625 16.890625 14.09765625 C16.230625 14.09765625 15.570625 14.09765625 14.890625 14.09765625 C14.395625 12.61265625 14.395625 12.61265625 13.890625 11.09765625 C13.354375 10.68515625 12.818125 10.27265625 12.265625 9.84765625 C10.890625 8.09765625 10.890625 8.09765625 11.203125 4.41015625 C11.43 3.31703125 11.656875 2.22390625 11.890625 1.09765625 C10.240625 1.42765625 8.590625 1.75765625 6.890625 2.09765625 C7.385625 3.58265625 7.385625 3.58265625 7.890625 5.09765625 C6.63958984 5.26201172 6.63958984 5.26201172 5.36328125 5.4296875 C-1.45755057 6.39069817 -7.6546068 7.69079353 -14.109375 10.09765625 C-12.80024273 6.17025944 -11.31947305 3.74126641 -8.109375 1.09765625 C-5.35762783 0.21275681 -2.87953677 -0.02181467 0 0 Z " fill="#192440" transform="translate(163.109375,79.90234375)"/>
<path d="M0 0 C-0.96752777 6.16999505 -3.95125595 11.20485645 -6.8125 16.6875 C-7.34681641 17.74517578 -7.88113281 18.80285156 -8.43164062 19.89257812 C-9.21764648 21.40561523 -9.21764648 21.40561523 -10.01953125 22.94921875 C-10.49495361 23.87049561 -10.97037598 24.79177246 -11.46020508 25.7409668 C-13.14199241 28.20831707 -14.28831073 28.88571587 -17 30 C-18.72563758 31.66184445 -18.72563758 31.66184445 -20.3125 33.625 C-20.90804687 34.32882813 -21.50359375 35.03265625 -22.1171875 35.7578125 C-22.73851563 36.49773437 -23.35984375 37.23765625 -24 38 C-25.30925096 39.50283671 -26.62160885 41.00297404 -27.9375 42.5 C-28.52402344 43.1703125 -29.11054687 43.840625 -29.71484375 44.53125 C-30.13894531 45.0159375 -30.56304687 45.500625 -31 46 C-31.66 45.319375 -32.32 44.63875 -33 43.9375 C-36.49468234 40.43274653 -40.25130779 37.22778212 -44 34 C-43.67 33.34 -43.34 32.68 -43 32 C-40.63671875 31.65625 -40.63671875 31.65625 -37.6875 31.5 C-33.92133699 31.2988698 -31.27049031 30.92655962 -28 29 C-28.15339844 28.28714844 -28.30679688 27.57429688 -28.46484375 26.83984375 C-29.68453283 19.35034797 -29.68453283 19.35034797 -28 16.02734375 C-21.85464271 9.52862842 -9.11529039 0 0 0 Z " fill="#F9FAFA" transform="translate(144,62)"/>
<path d="M0 0 C0 1.32 0 2.64 0 4 C-1.32 4.33 -2.64 4.66 -4 5 C-4 26.12 -4 47.24 -4 69 C-1.525 68.505 -1.525 68.505 1 68 C19.94653003 66.53171451 36.66916429 72.8961143 51 85 C53.43175345 87.2507092 55.76576892 89.55335962 58 92 C57.67 92.66 57.34 93.32 57 94 C55.7315625 92.7625 55.7315625 92.7625 54.4375 91.5 C36.11826565 75.91387723 16.96740647 76 -7 76 C-7 51.58 -7 27.16 -7 2 C-3 0 -3 0 0 0 Z " fill="#182245" transform="translate(47,89)"/>
<path d="M0 0 C2.475 0.495 2.475 0.495 5 1 C4.125 5.875 4.125 5.875 3 7 C3.04640625 7.72703125 3.0928125 8.4540625 3.140625 9.203125 C3.5907574 21.74252768 -4.19520368 31.05170664 -11 41 C-11.33 40.34 -11.66 39.68 -12 39 C-12.66 39 -13.32 39 -14 39 C-14.28875 39.639375 -14.5775 40.27875 -14.875 40.9375 C-16 43 -16 43 -18 44 C-18.66 42.35 -19.32 40.7 -20 39 C-20.26103516 39.49701416 -20.52207031 39.99402832 -20.79101562 40.50610352 C-26.49148926 51.35672047 -32.21696173 62.19314916 -38 73 C-38.66 72.67 -39.32 72.34 -40 72 C-39.21875 70.4375 -38.4375 68.875 -37.65625 67.3125 C-37.15569092 66.31130127 -36.65513184 65.31010254 -36.1394043 64.27856445 C-35.03956663 62.07905292 -33.93946572 59.879673 -32.83911133 57.68041992 C-30.4427485 52.89015641 -28.04673086 48.09981406 -25.66796875 43.30078125 C-25.00783411 41.97134344 -24.34767918 40.6419157 -23.6875 39.3125 C-23.37683594 38.68424316 -23.06617188 38.05598633 -22.74609375 37.40869141 C-21.21993456 34.34586451 -19.64129038 31.32565639 -17.95703125 28.34765625 C-17.31121094 27.20167969 -16.66539062 26.05570313 -16 24.875 C-15.4225 23.88242187 -14.845 22.88984375 -14.25 21.8671875 C-12.85585914 18.6693769 -12.8878703 16.44676955 -13 13 C-10.87666348 10.19719579 -8.24126867 8.46868975 -5.375 6.5 C-2.68014768 4.63610857 -1.06894994 3.20684981 0 0 Z " fill="#142341" transform="translate(169,26)"/>
<path d="M0 0 C0.33 0 0.66 0 1 0 C1 24.42 1 48.84 1 74 C2.485 73.505 2.485 73.505 4 73 C25.3489321 71.27107572 45.4095795 74.10382341 62.3125 88.4375 C63.199375 89.283125 64.08625 90.12875 65 91 C64.59007813 90.52949219 64.18015625 90.05898437 63.7578125 89.57421875 C63.21898438 88.95160156 62.68015625 88.32898438 62.125 87.6875 C61.59132813 87.07261719 61.05765625 86.45773438 60.5078125 85.82421875 C59 84 59 84 57 81 C57.99 80.67 58.98 80.34 60 80 C65.25308469 84.90114105 69.51425463 89.69884491 73 96 C74.65 94.68 76.3 93.36 78 92 C79.485 92.99 79.485 92.99 81 94 C79.47291037 97.43595166 77.40072955 100.11912454 75 103 C73.25 102.8125 73.25 102.8125 71 102 C70.10667969 100.87271484 70.10667969 100.87271484 69.1953125 99.72265625 C59.07698434 87.17376883 41.48270874 79.66557975 26 77 C15.93746246 76.18047375 7.13275466 77.55246362 -3 79 C-3 59.53 -3 40.06 -3 20 C-2.67 20 -2.34 20 -2 20 C-1.67 36.5 -1.34 53 -1 70 C-0.67 46.9 -0.34 23.8 0 0 Z " fill="#E5ECF2" transform="translate(39,91)"/>
<path d="M0 0 C14 0 14 0 18 2 C12.92757155 3.62317711 8.10668815 3.27667204 3 2 C3 22.46 3 42.92 3 64 C5.64 64.33 8.28 64.66 11 65 C11 65.66 11 66.32 11 67 C9.68 67 8.36 67 7 67 C6.67 67.99 6.34 68.98 6 70 C4.35 69.34 2.7 68.68 1 68 C1 68.66 1 69.32 1 70 C1.61488281 70 2.22976562 70 2.86328125 70 C13 70 13 70 17 73 C11.39 72.67 5.78 72.34 0 72 C0 48.24 0 24.48 0 0 Z " fill="#090F2D" transform="translate(50,81)"/>
<path d="M0 0 C0.495 1.485 0.495 1.485 1 3 C1.99 3.33 2.98 3.66 4 4 C2.68 4 1.36 4 0 4 C0.12503906 4.74378906 0.25007813 5.48757812 0.37890625 6.25390625 C0 9 0 9 -2.59765625 11.02734375 C-4.31275391 11.97287109 -4.31275391 11.97287109 -6.0625 12.9375 C-15.07833784 18.13090457 -20.85738645 23.59824894 -27 32 C-30.68297866 31.3791378 -32.57688029 30.93325018 -35 28 C-34.34 27.34 -33.68 26.68 -33 26 C-32.35232207 23.42938689 -32.35232207 23.42938689 -32 21 C-31.34 21 -30.68 21 -30 21 C-29.67 20.34 -29.34 19.68 -29 19 C-29 20.65 -29 22.3 -29 24 C-28.34 24.33 -27.68 24.66 -27 25 C-26.76152344 24.28585938 -26.52304688 23.57171875 -26.27734375 22.8359375 C-21.37109473 11.94316444 -10.36612812 5.03842041 0 0 Z " fill="#192645" transform="translate(143,151)"/>
<path d="M0 0 C1.70840281 1.63412443 2.93453047 2.86906094 4 5 C4.66 4.01 5.32 3.02 6 2 C6.99 1.67 7.98 1.34 9 1 C9.33 1.99 9.66 2.98 10 4 C8.72900568 6.44030909 7.41540912 8.6903173 5.9375 11 C5.10237708 12.34394169 4.26905619 13.68900475 3.4375 15.03515625 C3.02371094 15.7017627 2.60992187 16.36836914 2.18359375 17.05517578 C-0.38326404 21.27291282 -2.68803227 25.6389942 -5 30 C-6.65 29.67 -8.3 29.34 -10 29 C-10 28.34 -10 27.68 -10 27 C-9.01 27 -8.02 27 -7 27 C-7 26.34 -7 25.68 -7 25 C-7.99 25.33 -8.98 25.66 -10 26 C-11.01615584 23.35853389 -11.08324182 22.22974834 -10.10375977 19.52636719 C-9.63768311 18.62563477 -9.17160645 17.72490234 -8.69140625 16.796875 C-8.19189453 15.8171875 -7.69238281 14.8375 -7.17773438 13.828125 C-6.64470703 12.81234375 -6.11167969 11.7965625 -5.5625 10.75 C-5.03333984 9.71875 -4.50417969 8.6875 -3.95898438 7.625 C-2.64991455 5.07762089 -1.32998645 2.53650356 0 0 Z " fill="#1B2745" transform="translate(148,64)"/>
<path d="M0 0 C0.66 0 1.32 0 2 0 C5.7763068 16.89222954 4.00765448 33.98871338 2 51 C1.34 51 0.68 51 0 51 C-1.86736702 41.19632317 -2.21892635 31.52937396 -2.25 21.5625 C-2.25902344 20.35432617 -2.26804687 19.14615234 -2.27734375 17.90136719 C-2.25632046 11.58211528 -1.88674745 6.04208409 0 0 Z " fill="#EEC56B" transform="translate(108,28)"/>
<path d="M0 0 C0.33 0 0.66 0 1 0 C1 18.81 1 37.62 1 57 C0.34 56.34 -0.32 55.68 -1 55 C-1 54.34 -1 53.68 -1 53 C-1.66 53 -2.32 53 -3 53 C-2.95875 53.78375 -2.9175 54.5675 -2.875 55.375 C-3 58 -3 58 -5 60 C-3.02 61.32 -1.04 62.64 1 64 C0.34 65.65 -0.32 67.3 -1 69 C-4.48370591 65.77434638 -7.86503886 62.27912471 -10 58 C-9.8125 54.5625 -9.8125 54.5625 -9 52 C-7.68 53.32 -6.36 54.64 -5 56 C-4.67 38.51 -4.34 21.02 -4 3 C-3.67 3 -3.34 3 -3 3 C-2.97494385 4.26706787 -2.9498877 5.53413574 -2.92407227 6.83959961 C-2.83018004 11.52297779 -2.72991565 16.2062013 -2.62768555 20.8894043 C-2.58426759 22.91964104 -2.54259774 24.94991592 -2.50268555 26.98022461 C-2.44514854 29.89188151 -2.38140722 32.80334514 -2.31640625 35.71484375 C-2.29969376 36.6283812 -2.28298126 37.54191864 -2.26576233 38.48313904 C-2.5769315 42.56789316 -2.5769315 42.56789316 -1 46 C-0.67 30.82 -0.34 15.64 0 0 Z " fill="#0C132E" transform="translate(114,119)"/>
<path d="M0 0 C0.33 0 0.66 0 1 0 C1 24.42 1 48.84 1 74 C5.455 73.505 5.455 73.505 10 73 C9.505 73.99 9.505 73.99 9 75 C9.66 75.66 10.32 76.32 11 77 C4.07 77.99 4.07 77.99 -3 79 C-3 59.53 -3 40.06 -3 20 C-2.67 20 -2.34 20 -2 20 C-1.67 36.5 -1.34 53 -1 70 C-0.67 46.9 -0.34 23.8 0 0 Z " fill="#CCD0DB" transform="translate(39,91)"/>
<path d="M0 0 C0.33 0.66 0.66 1.32 1 2 C1.66 2 2.32 2 3 2 C3 2.66 3 3.32 3 4 C2.34 4 1.68 4 1 4 C1 22.81 1 41.62 1 61 C-0.485 61.495 -0.485 61.495 -2 62 C-2 42.2 -2 22.4 -2 2 C-1.34 2 -0.68 2 0 2 C0 1.34 0 0.68 0 0 Z " fill="#F1F7FB" transform="translate(188,104)"/>
<path d="M0 0 C0.99 0 1.98 0 3 0 C3 20.13 3 40.26 3 61 C2.01 60.67 1.02 60.34 0 60 C0 40.2 0 20.4 0 0 Z " fill="#F9FDFE" transform="translate(177,94)"/>
<path d="M0 0 C0 1.32 0 2.64 0 4 C-1.32 4.33 -2.64 4.66 -4 5 C-3.99777939 5.78260696 -3.99555878 6.56521393 -3.99327087 7.37153625 C-3.97324184 14.74338968 -3.95801251 22.11522993 -3.94818783 29.48710346 C-3.9429671 33.27714002 -3.9358841 37.06715411 -3.92456055 40.85717773 C-3.91370296 44.51408802 -3.90771705 48.17097668 -3.90512276 51.82790184 C-3.9032737 53.22376025 -3.89966301 54.61961747 -3.89426994 56.01546669 C-3.88702156 57.96903964 -3.88659162 59.92263431 -3.88647461 61.8762207 C-3.884254 62.9887471 -3.88203339 64.1012735 -3.87974548 65.24751282 C-4 68 -4 68 -5 71 C-5 71.99 -5 72.98 -5 74 C-3.02 74 -1.04 74 1 74 C1 74.33 1 74.66 1 75 C-1.64 75.33 -4.28 75.66 -7 76 C-7 51.58 -7 27.16 -7 2 C-3 0 -3 0 0 0 Z " fill="#050E2D" transform="translate(47,89)"/>
<path d="M0 0 C0.66 0.33 1.32 0.66 2 1 C1.67 20.8 1.34 40.6 1 61 C2.485 61.495 2.485 61.495 4 62 C4 62.99 4 63.98 4 65 C2.80503906 64.98839844 1.61007813 64.97679687 0.37890625 64.96484375 C-11.34321693 64.87827909 -11.34321693 64.87827909 -23 66 C-23 65.01 -23 64.02 -23 63 C-15.07960649 59.50570875 -9.00935671 60 0 60 C0 40.2 0 20.4 0 0 Z " fill="#C3C6CF" transform="translate(176,93)"/>
<path d="M0 0 C14.22641317 1.82945415 26.34939008 6.93018274 36 18 C37.41523448 19.96171116 38.71232822 21.94926346 40 24 C39.67 24.66 39.34 25.32 39 26 C37.8274869 25.04882866 36.66212985 24.08882991 35.5 23.125 C34.8503125 22.59132813 34.200625 22.05765625 33.53125 21.5078125 C33.0259375 21.01023437 32.520625 20.51265625 32 20 C32 19.34 32 18.68 32 18 C31.34 17.773125 30.68 17.54625 30 17.3125 C26.98219159 15.99220882 24.3522327 14.34171064 21.5859375 12.56640625 C14.62108299 8.34751401 7.30227823 4.59581882 0 1 C0 0.67 0 0.34 0 0 Z " fill="#EDB94A" transform="translate(64,55)"/>
<path d="M0 0 C0.66 0 1.32 0 2 0 C2.33 24.75 2.66 49.5 3 75 C3.66 75 4.32 75 5 75 C5 76.32 5 77.64 5 79 C4.34515625 78.93941406 3.6903125 78.87882812 3.015625 78.81640625 C-3.98663453 78.17354344 -10.99184389 77.57484003 -18 77 C-18 76.67 -18 76.34 -18 76 C-15.36 75.67 -12.72 75.34 -10 75 C-13.96 74.67 -17.92 74.34 -22 74 C-22 73.67 -22 73.34 -22 73 C-19.45826023 72.97283176 -16.91681585 72.95308031 -14.375 72.9375 C-13.66214844 72.92912109 -12.94929687 72.92074219 -12.21484375 72.91210938 C-11.51230469 72.90888672 -10.80976563 72.90566406 -10.0859375 72.90234375 C-9.4470459 72.89710693 -8.8081543 72.89187012 -8.14990234 72.88647461 C-5.41184324 73.03105756 -2.70456765 73.54923873 0 74 C0 49.58 0 25.16 0 0 Z " fill="#B3B8C8" transform="translate(184,90)"/>
<path d="M0 0 C-0.9375 2.875 -0.9375 2.875 -3 6 C-4.81640625 6.59765625 -4.81640625 6.59765625 -7 6.9375 C-17.49361515 8.67226296 -25.5839176 16.90565653 -33 24 C-33.33 23.01 -33.66 22.02 -34 21 C-12.60537543 -4.20179181 -12.60537543 -4.20179181 0 0 Z " fill="#EDB84C" transform="translate(148,57)"/>
<path d="M0 0 C11.0996665 1.66494998 19.54458488 7.34636906 27.75 14.75 C28.5385437 15.45757446 28.5385437 15.45757446 29.34301758 16.17944336 C30.62715611 17.3872452 31.82207106 18.68840537 33 20 C33 20.99 33 21.98 33 23 C32.154375 22.175 31.30875 21.35 30.4375 20.5 C19.53608419 11.27740222 6.64157927 7.25022736 -7 4 C-7 3.67 -7 3.34 -7 3 C-5.5459375 2.814375 -5.5459375 2.814375 -4.0625 2.625 C-2.5465625 2.315625 -2.5465625 2.315625 -1 2 C-0.67 1.34 -0.34 0.68 0 0 Z " fill="#19203E" transform="translate(71,160)"/>
<path d="M0 0 C1.09326172 1.77832031 1.09326172 1.77832031 2 4 C0.83513983 6.76882993 -0.37765179 9.1691669 -1.875 11.75 C-2.7283343 13.285475 -3.57985854 14.82195715 -4.4296875 16.359375 C-4.8637793 17.13603516 -5.29787109 17.91269531 -5.74511719 18.71289062 C-7.59935669 22.09236837 -9.30279116 25.53973859 -11 29 C-15.16486392 37.42289206 -19.56998362 45.71422862 -24 54 C-24.66 54 -25.32 54 -26 54 C-23.45263238 44.95735239 -19.03560026 36.96279778 -14.6875 28.6875 C-13.55868828 26.5246919 -12.43174955 24.36091529 -11.30496216 22.197052 C-10.57356055 20.79288929 -9.84137487 19.38913468 -9.10836792 17.98580933 C-5.99928329 12.02629359 -2.97750386 6.02646781 0 0 Z " fill="#1A1F33" transform="translate(155,41)"/>
<path d="M0 0 C12.48047313 0.2400091 25.53095897 6.42205931 34.80078125 14.5859375 C36 16 36 16 36 18 C31.89268197 17.44456198 29.47318049 16.14900783 26.125 13.75 C17.61585261 8.14641513 8.08799003 5.21573213 -2 4 C-2 2 -2 2 0 0 Z " fill="#E0E5ED" transform="translate(62,154)"/>
<path d="M0 0 C0 0.99 0 1.98 0 3 C-0.82242188 3.29132813 -1.64484375 3.58265625 -2.4921875 3.8828125 C-15.23364325 8.56154568 -26.73592925 14.72164627 -35.1015625 25.77734375 C-35.72804688 26.51082031 -36.35453125 27.24429688 -37 28 C-37.99 28 -38.98 28 -40 28 C-36.32791012 16.94445666 -24.77845496 10.17615397 -15 5 C-4.44038929 0 -4.44038929 0 0 0 Z " fill="#20253A" transform="translate(161,125)"/>
<path d="M0 0 C0.99 0.33 1.98 0.66 3 1 C2.67 21.46 2.34 41.92 2 63 C3.65 63 5.3 63 7 63 C5.75 64.5625 5.75 64.5625 4 66 C2.68 65.67 1.36 65.34 0 65 C0 43.55 0 22.1 0 0 Z " fill="#12153D" transform="translate(51,82)"/>
<path d="M0 0 C13.27776546 0.22892699 23.26346121 7.54232319 32.4765625 16.3515625 C39 23.19814241 39 23.19814241 39 27 C36 26 36 26 34.5 23.5 C27.11935153 11.86988726 12.66406445 5.79921933 0 2 C0 1.34 0 0.68 0 0 Z " fill="#1C2135" transform="translate(63,126)"/>
<path d="M0 0 C-0.33 0.99 -0.66 1.98 -1 3 C-3.3359375 3.95703125 -3.3359375 3.95703125 -6.375 4.8125 C-16.68356036 8.07809595 -24.34454732 12.80543067 -32.02929688 20.30493164 C-34.36660627 22.58158833 -35.85445556 23.95148519 -39 25 C-37.80035307 18.2020007 -31.48820164 14.21257422 -26.1875 10.375 C-18.27058008 5.02085203 -9.77427112 0 0 0 Z " fill="#21283A" transform="translate(161,109)"/>
<path d="M0 0 C15.07295869 1.11651546 26.99891297 9.54678339 37.453125 20.01953125 C39 22 39 22 39 25 C35.14804223 23.43068387 32.88256053 20.94959682 30 18 C22.00493164 9.82425213 10.82427337 5.17263185 0 2 C0 1.34 0 0.68 0 0 Z " fill="#202537" transform="translate(63,109)"/>
<path d="M0 0 C2.31282587 3.46923881 2.42478586 4.92205575 2 9 C0.8125 10.875 0.8125 10.875 -1 12 C-3.4375 12.4375 -3.4375 12.4375 -6 12 C-8.375 10.3125 -8.375 10.3125 -10 8 C-9.93019221 5.13788059 -9.37347914 3.57004712 -7.8125 1.1875 C-5.1218647 -0.57533002 -3.13475017 -0.40018087 0 0 Z " fill="#EFB63F" transform="translate(113,82)"/>
<path d="M0 0 C0.33 0 0.66 0 1 0 C1 15.18 1 30.36 1 46 C-8 45 -8 45 -11 44 C-11 44.66 -11 45.32 -11 46 C-12.98 46.495 -12.98 46.495 -15 47 C-14.67 45.35 -14.34 43.7 -14 42 C-10.37 42.33 -6.74 42.66 -3 43 C-1.86557306 39.59671917 -1.93601522 37.01664858 -2 33.4375 C-2.11087191 27.22174381 -2.11087191 27.22174381 -1 25 C-0.84655791 23.11527141 -0.75040429 21.22572126 -0.68359375 19.3359375 C-0.64169922 18.21445313 -0.59980469 17.09296875 -0.55664062 15.9375 C-0.51732422 14.761875 -0.47800781 13.58625 -0.4375 12.375 C-0.39431641 11.19164063 -0.35113281 10.00828125 -0.30664062 8.7890625 C-0.20032574 5.85949672 -0.09829358 2.92984412 0 0 Z " fill="#162444" transform="translate(174,104)"/>
<path d="M0 0 C1 3 1 3 -0.28833008 6.06835938 C-0.93838006 7.33220042 -1.59964237 8.59031151 -2.26953125 9.84375 C-2.7977951 10.86040489 -2.7977951 10.86040489 -3.33673096 11.89759827 C-4.48586802 14.10348777 -5.64897364 16.30167163 -6.8125 18.5 C-7.59844919 20.00206563 -8.3835236 21.5045893 -9.16772461 23.00756836 C-11.08780243 26.68214206 -13.01889882 30.35077546 -14.9543457 34.01727295 C-16.42823371 36.8119993 -17.89387891 39.61102222 -19.359375 42.41015625 C-21.56207325 46.61257762 -23.77599564 50.80881734 -26 55 C-26.66 54.67 -27.32 54.34 -28 54 C-27.21875 52.4375 -26.4375 50.875 -25.65625 49.3125 C-25.15577148 48.31138184 -24.65529297 47.31026367 -24.13964844 46.27880859 C-23.0392569 44.07835321 -21.93833853 41.8781612 -20.83691406 39.67822266 C-18.4469946 34.90328972 -16.05758031 30.12847632 -13.703125 25.3359375 C-9.44936955 16.69601397 -4.87838433 8.30363291 0 0 Z " fill="#D2DAE8" transform="translate(157,44)"/>
<path d="M0 0 C0.99 0.33 1.98 0.66 3 1 C2.67386719 1.4640625 2.34773437 1.928125 2.01171875 2.40625 C-2.65453886 9.78416764 -3.71999903 17.51869279 -5 26 C-5.66 25.01 -6.32 24.02 -7 23 C-8.65 23.33 -10.3 23.66 -12 24 C-10.44651947 18.67741916 -8.05642112 14.04057184 -5.4375 9.1875 C-4.8197168 8.02444336 -4.8197168 8.02444336 -4.18945312 6.83789062 C-1.14773261 1.14773261 -1.14773261 1.14773261 0 0 Z " fill="#E1E7ED" transform="translate(128,90)"/>
<path d="M0 0 C0.76441406 0.06703125 1.52882812 0.1340625 2.31640625 0.203125 C4.82763854 0.85058821 5.82592834 1.752269 7.4375 3.75 C7.4375 4.08 7.4375 4.41 7.4375 4.75 C6.18646484 4.91435547 6.18646484 4.91435547 4.91015625 5.08203125 C-1.91067557 6.04304192 -8.1077318 7.34313728 -14.5625 9.75 C-13.25336773 5.82260319 -11.77259805 3.39361016 -8.5625 0.75 C-5.58578959 -0.25692107 -3.11183919 -0.31592276 0 0 Z " fill="#1D253E" transform="translate(163.5625,80.25)"/>
<path d="M0 0 C0.66 0.33 1.32 0.66 2 1 C2 11.23 2 21.46 2 32 C1.34 32 0.68 32 0 32 C-1.02419624 28.61618582 -1.12904436 25.5186322 -1.1328125 21.9921875 C-1.13410156 20.84105469 -1.13539062 19.68992187 -1.13671875 18.50390625 C-1.13285156 17.30636719 -1.12898438 16.10882813 -1.125 14.875 C-1.12886719 13.66972656 -1.13273437 12.46445312 -1.13671875 11.22265625 C-1.13542969 10.07410156 -1.13414063 8.92554688 -1.1328125 7.7421875 C-1.13168457 6.6888623 -1.13055664 5.63553711 -1.12939453 4.55029297 C-1 2 -1 2 0 0 Z " fill="#F7B432" transform="translate(108,36)"/>
<path d="M0 0 C-0.33 0.66 -0.66 1.32 -1 2 C-3.88544101 2.62170842 -6.71058546 3.12878004 -9.625 3.5625 C-10.81802734 3.75102539 -10.81802734 3.75102539 -12.03515625 3.94335938 C-13.60960208 4.19025523 -15.18548168 4.42818986 -16.76269531 4.65673828 C-18.81772664 4.97203445 -20.85949838 5.37078174 -22.8984375 5.77734375 C-26 6 -26 6 -27.9375 4.5625 C-28.4634375 3.7890625 -28.4634375 3.7890625 -29 3 C-19.65148165 -1.03740638 -9.95624052 -0.27599435 0 0 Z " fill="#DAE2EB" transform="translate(175,164)"/>
<path d="M0 0 C0.33 0 0.66 0 1 0 C1.33 22.44 1.66 44.88 2 68 C3.98 68 5.96 68 8 68 C8 68.33 8 68.66 8 69 C5.36 69.33 2.72 69.66 0 70 C0 46.9 0 23.8 0 0 Z " fill="#050B27" transform="translate(40,95)"/>
<path d="M0 0 C1.3303125 0.4021875 1.3303125 0.4021875 2.6875 0.8125 C2.6875 3.7825 2.6875 6.7525 2.6875 9.8125 C0.02394766 10.20419887 -1.70474373 10.21814529 -3.98046875 8.69921875 C-5.4635888 7.44860683 -6.89204352 6.13385486 -8.3125 4.8125 C-4.12788462 -0.23365385 -4.12788462 -0.23365385 0 0 Z " fill="#F3F5F7" transform="translate(167.3125,34.1875)"/>
<path d="M0 0 C4.875 1.75 4.875 1.75 6 4 C5.67 4.33 5.34 4.66 5 5 C5.99 5 6.98 5 8 5 C8 4.34 8 3.68 8 3 C8.66 3 9.32 3 10 3 C10 2.34 10 1.68 10 1 C9.34 0.67 8.68 0.34 8 0 C9.32 0 10.64 0 12 0 C11.74438677 2.3431213 11.40729228 4.67843403 11 7 C10.01 7.495 10.01 7.495 9 8 C10.32 8.33 11.64 8.66 13 9 C10.36 9.33 7.72 9.66 5 10 C5 9.34 5 8.68 5 8 C3.68 7.67 2.36 7.34 1 7 C1.33 6.34 1.66 5.68 2 5 C1.34 5 0.68 5 0 5 C0 5.66 0 6.32 0 7 C-0.66 7 -1.32 7 -2 7 C-2.33 5.02 -2.66 3.04 -3 1 C-2.01 1.33 -1.02 1.66 0 2 C0 1.34 0 0.68 0 0 Z " fill="#17254B" transform="translate(179,169)"/>
<path d="M0 0 C1.98073365 0.280828 3.95958448 0.57496614 5.9375 0.875 C7.59072266 1.11863281 7.59072266 1.11863281 9.27734375 1.3671875 C10.17582031 1.57601562 11.07429687 1.78484375 12 2 C12.33 2.66 12.66 3.32 13 4 C15.11327425 4.90725434 15.11327425 4.90725434 17.5625 5.625 C18.38878906 5.88539063 19.21507812 6.14578125 20.06640625 6.4140625 C20.70449219 6.60742188 21.34257812 6.80078125 22 7 C22 7.33 22 7.66 22 8 C15.25 9 15.25 9 13 9 C12.01 9.495 12.01 9.495 11 10 C11 10.66 11 11.32 11 12 C9.35 11.67 7.7 11.34 6 11 C6.66 10.34 7.32 9.68 8 9 C6.41641358 5.83282717 5.54736301 4.26731682 2.3125 2.6875 C1.1678125 2.3471875 1.1678125 2.3471875 0 2 C0 1.34 0 0.68 0 0 Z " fill="#192749" transform="translate(143,172)"/>
<path d="M0 0 C-0.53069061 3.82097239 -1.49701566 6.06171403 -4 9 C-4.66 8.01 -5.32 7.02 -6 6 C-6.33 6.33 -6.66 6.66 -7 7 C-8.66617115 7.04063832 -10.33388095 7.042721 -12 7 C-12 7.66 -12 8.32 -12 9 C-13.32 9 -14.64 9 -16 9 C-16 9.66 -16 10.32 -16 11 C-17.32 10.67 -18.64 10.34 -20 10 C-6.63013699 0 -6.63013699 0 0 0 Z " fill="#FEF5D9" transform="translate(144,62)"/>
<path d="M0 0 C0.33 0 0.66 0 1 0 C1.00808685 0.68460297 1.01617371 1.36920593 1.02450562 2.07455444 C1.11035007 9.17945406 1.20984415 16.28406817 1.31738281 23.38867188 C1.35574181 26.04259458 1.39058226 28.69657051 1.421875 31.35058594 C1.46737536 35.1583971 1.52539449 38.96583958 1.5859375 42.7734375 C1.59748871 43.96617279 1.60903992 45.15890808 1.62094116 46.38778687 C1.64081085 47.48877716 1.66068054 48.58976746 1.68115234 49.72412109 C1.69447601 50.69674896 1.70779968 51.66937683 1.7215271 52.67147827 C1.77960304 55.19169482 1.77960304 55.19169482 4 57 C2.68 58.65 1.36 60.3 0 62 C0 41.54 0 21.08 0 0 Z " fill="#D3DAEA" transform="translate(115,114)"/>
<path d="M0 0 C0.99 0.33 1.98 0.66 3 1 C2.67 3.64 2.34 6.28 2 9 C-0.4828287 9.88672454 -1.62029277 10.14518218 -4.125 9.1875 C-6 8 -6 8 -8 6 C-8.33 6.99 -8.66 7.98 -9 9 C-9.99 8.67 -10.98 8.34 -12 8 C-10.6875 6.5 -10.6875 6.5 -9 5 C-8.01 5 -7.02 5 -6 5 C-5.67 4.34 -5.34 3.68 -5 3 C-2.625 1.3125 -2.625 1.3125 0 0 Z " fill="#192647" transform="translate(133,180)"/>
<path d="M0 0 C1.57499749 3.14999498 0.70833498 5.63540882 0 9 C-1.5625 10.9375 -1.5625 10.9375 -3 12 C-3 8.79604584 -2.25664978 6.90600261 -1 4 C-1.99 4 -2.98 4 -4 4 C-4.33 5.98 -4.66 7.96 -5 10 C-9.38968456 10 -10.76905739 7.87194899 -14 5 C-13.67 4.34 -13.34 3.68 -13 3 C-10.56640625 2.65625 -10.56640625 2.65625 -7.5625 2.5 C-3.27670771 2.45324169 -3.27670771 2.45324169 0 0 Z " fill="#F5F4EB" transform="translate(114,91)"/>
<path d="M0 0 C3.24062132 3.24062132 3.95504189 6.03254613 4.16699219 10.59350586 C4.13847724 11.96757266 4.09780208 13.34142498 4.046875 14.71484375 C4.02659241 15.4482045 4.00630981 16.18156525 3.9854126 16.93714905 C3.93999197 18.48291972 3.88924833 20.02854209 3.83349609 21.57397461 C3.75040361 23.92607503 3.68843348 26.27805773 3.62890625 28.63085938 C3.58199431 30.13806074 3.53385753 31.64522459 3.484375 33.15234375 C3.46654968 33.84939926 3.44872437 34.54645477 3.43035889 35.26463318 C3.26241651 39.50138752 2.5272386 43.04771259 1 47 C-0.07649196 43.62699186 0.06750668 40.94101702 0.4375 37.4375 C1.51498524 25.02542977 1.55698679 12.37248431 0 0 Z " fill="#FEF7D3" transform="translate(110,29)"/>
<path d="M0 0 C2.31 0.33 4.62 0.66 7 1 C8.09658936 4.28976808 7.79953138 5.71303767 7 9 C4.58533087 7.79266543 2.30884631 6.39745961 0 5 C-0.33 5.33 -0.66 5.66 -1 6 C-7.52542373 6.23728814 -7.52542373 6.23728814 -10 5 C-10 4.34 -10 3.68 -10 3 C-7.525 3.495 -7.525 3.495 -5 4 C-4.67 3.34 -4.34 2.68 -4 2 C-2.68 2 -1.36 2 0 2 C0 1.34 0 0.68 0 0 Z " fill="#182349" transform="translate(61,146)"/>
<path d="M0 0 C0.33 0 0.66 0 1 0 C1 15.51 1 31.02 1 47 C0.67 47 0.34 47 0 47 C-0.33 36.11 -0.66 25.22 -1 14 C-1.99 13.67 -2.98 13.34 -4 13 C-3.34 12.67 -2.68 12.34 -2 12 C-2.33 10.35 -2.66 8.7 -3 7 C-2.34 6.67 -1.68 6.34 -1 6 C-0.34227572 2.97065509 -0.34227572 2.97065509 0 0 Z " fill="#ECF7FB" transform="translate(49,81)"/>
<path d="M0 0 C5.77799578 -0.23583656 10.43707471 0.21566547 16 2 C17.99488234 2.36270588 19.9937811 2.70640699 22 3 C22 3.66 22 4.32 22 5 C23.32 5 24.64 5 26 5 C28.25 7 28.25 7 30 9 C29.67 9.99 29.34 10.98 29 12 C28.52433594 11.61328125 28.04867187 11.2265625 27.55859375 10.828125 C19.82646072 5.07530411 9.73897535 1.5167684 0 2 C0 1.34 0 0.68 0 0 Z " fill="#FCF1CB" transform="translate(62,54)"/>
<path d="M0 0 C7.66381587 1.33509914 13.83903317 8.5743682 19 14 C18.67 14.66 18.34 15.32 18 16 C17.113125 15.154375 16.22625 14.30875 15.3125 13.4375 C10.15201302 8.97005363 4.04847444 6.07426219 -2 3 C-1.34 2.67 -0.68 2.34 0 2 C0 1.34 0 0.68 0 0 Z " fill="#222942" transform="translate(86,167)"/>
<path d="M0 0 C5.15171623 -0.09038099 9.91913204 0.15318867 15 1 C15 1.99 15 2.98 15 4 C9.75614911 5.7479503 5.52677733 6.19392201 0 6 C0.99 5.67 1.98 5.34 3 5 C3 4.01 3 3.02 3 2 C2.01 1.34 1.02 0.68 0 0 Z " fill="#141F3D" transform="translate(52,157)"/>
<path d="M0 0 C0.8971875 0.309375 0.8971875 0.309375 1.8125 0.625 C-0.4975 1.945 -2.8075 3.265 -5.1875 4.625 C-3.95 5.800625 -3.95 5.800625 -2.6875 7 C-0.1875 9.625 -0.1875 9.625 -0.1875 11.625 C1.1325 12.285 2.4525 12.945 3.8125 13.625 C-0.38219571 13.02575776 -4.19749834 12.05000059 -8.1875 10.625 C-8.9375 8.375 -8.9375 8.375 -9.1875 5.625 C-6.83623238 2.68591547 -3.99224108 -0.68438419 0 0 Z " fill="#6A6F7D" transform="translate(165.1875,33.375)"/>
<path d="M0 0 C0.66 0 1.32 0 2 0 C2.33 0.99 2.66 1.98 3 3 C5.00016466 4.20882096 5.00016466 4.20882096 7 5 C7 5.66 7 6.32 7 7 C6.38125 7.2475 5.7625 7.495 5.125 7.75 C2.64931313 9.20628639 2.04874998 10.37812506 1 13 C-1 10 -1 10 -1 8 C-2.32 7.34 -3.64 6.68 -5 6 C-4.360625 5.38125 -3.72125 4.7625 -3.0625 4.125 C-0.96116416 2.17402388 -0.96116416 2.17402388 0 0 Z " fill="#E4BA5F" transform="translate(129,35)"/>
<path d="M0 0 C1.65 0.33 3.3 0.66 5 1 C4.125 5.875 4.125 5.875 3 7 C2.76572222 9.01594582 2.58663876 11.038474 2.4375 13.0625 C2.35371094 14.16722656 2.26992187 15.27195312 2.18359375 16.41015625 C2.12300781 17.26480469 2.06242188 18.11945312 2 19 C1.67 19 1.34 19 1 19 C1 15.7 1 12.4 1 9 C-1.475 8.01 -1.475 8.01 -4 7 C-2.68 4.69 -1.36 2.38 0 0 Z " fill="#191C32" transform="translate(169,26)"/>
<path d="M0 0 C0.66 0.33 1.32 0.66 2 1 C2.33 1.99 2.66 2.98 3 4 C-1.62 5.65 -6.24 7.3 -11 9 C-11.33 7.68 -11.66 6.36 -12 5 C-10.04578965 4.13644222 -8.08648653 3.28440066 -6.125 2.4375 C-5.03445312 1.96183594 -3.94390625 1.48617187 -2.8203125 0.99609375 C-1.88960937 0.66738281 -0.95890625 0.33867187 0 0 Z " fill="#E1E9EF" transform="translate(151,156)"/>
<path d="M0 0 C0.33 0 0.66 0 1 0 C1.02923559 3.85415052 1.04687777 7.70827215 1.0625 11.5625 C1.07087891 12.64853516 1.07925781 13.73457031 1.08789062 14.85351562 C1.10459218 20.34832611 0.98582259 25.58961935 0 31 C-0.66 31 -1.32 31 -2 31 C-2.84681133 25.91913204 -3.09038099 21.15171623 -3 16 C-2.67 17.32 -2.34 18.64 -2 20 C-1.34 20 -0.68 20 0 20 C0 13.4 0 6.8 0 0 Z " fill="#E6B657" transform="translate(110,48)"/>
<path d="M0 0 C1.65 0.33 3.3 0.66 5 1 C5 1.99 5 2.98 5 4 C5.99 4.33 6.98 4.66 8 5 C8 5.66 8 6.32 8 7 C5.525 6.01 5.525 6.01 3 5 C3 4.01 3 3.02 3 2 C2.34 2 1.68 2 1 2 C0.566875 3.2065625 0.566875 3.2065625 0.125 4.4375 C-1 7 -1 7 -3 8 C-2.01 8.66 -1.02 9.32 0 10 C-0.33 10.66 -0.66 11.32 -1 12 C-1.99 11.67 -2.98 11.34 -4 11 C-4 10.34 -4 9.68 -4 9 C-4.66 9 -5.32 9 -6 9 C-6 7.68 -6 6.36 -6 5 C-4.35 4.67 -2.7 4.34 -1 4 C-0.67 2.68 -0.34 1.36 0 0 Z " fill="#FDF1D2" transform="translate(128,33)"/>
<path d="M0 0 C5.41110091 1.31978071 9.26441506 3.93285427 13 8 C13 8.66 13 9.32 13 10 C8.7170548 9.4520917 6.14864359 7.97567196 2.6875 5.4375 C1.80449219 4.79683594 0.92148438 4.15617188 0.01171875 3.49609375 C-0.65214844 3.00238281 -1.31601563 2.50867188 -2 2 C-1.34 1.34 -0.68 0.68 0 0 Z " fill="#E2ECF0" transform="translate(85,162)"/>
<path d="M0 0 C-0.68707031 0.61488281 -1.37414062 1.22976562 -2.08203125 1.86328125 C-3.43361328 3.07564453 -3.43361328 3.07564453 -4.8125 4.3125 C-5.70582031 5.11300781 -6.59914063 5.91351563 -7.51953125 6.73828125 C-9.39926786 8.45224581 -11.22592747 10.17877604 -13 12 C-13.33 9.69 -13.66 7.38 -14 5 C-12.68 5 -11.36 5 -10 5 C-9.67 4.01 -9.34 3.02 -9 2 C-5.58420831 -0.58492344 -4.05166877 -1.27856499 0 0 Z " fill="#F9FBE1" transform="translate(128,65)"/>
<path d="M0 0 C1.46953125 -0.03867188 1.46953125 -0.03867188 2.96875 -0.078125 C3.8040625 0.03015625 4.639375 0.1384375 5.5 0.25 C6.16 1.24 6.82 2.23 7.5 3.25 C4.07767028 4.39077657 1.41326783 4.34815117 -2.1875 4.3125 C-3.95673828 4.29896484 -3.95673828 4.29896484 -5.76171875 4.28515625 C-6.66535156 4.27355469 -7.56898437 4.26195312 -8.5 4.25 C-8.17 3.26 -7.84 2.27 -7.5 1.25 C-4.90541894 -0.04729053 -2.89552402 0.0457188 0 0 Z " fill="#ECF0F3" transform="translate(55.5,152.75)"/>
<path d="M0 0 C0.33 0.66 0.66 1.32 1 2 C-0.29296875 4.8203125 -0.29296875 4.8203125 -2.1875 8.125 C-2.79980469 9.22070312 -3.41210938 10.31640625 -4.04296875 11.4453125 C-4.68878906 12.28835937 -5.33460937 13.13140625 -6 14 C-7.32 14 -8.64 14 -10 14 C-9.54261927 9.31808451 -7.80889606 7.36895826 -4.4375 4.1875 C-3.61121094 3.39730469 -2.78492187 2.60710937 -1.93359375 1.79296875 C-1.29550781 1.20128906 -0.65742187 0.60960938 0 0 Z " fill="#191D33" transform="translate(124,95)"/>
<path d="M0 0 C2.875 -0.1875 2.875 -0.1875 6 0 C8.31282587 3.46923881 8.42478586 4.92205575 8 9 C6.8125 10.875 6.8125 10.875 5 12 C2.3125 12.1875 2.3125 12.1875 0 12 C-0.33 11.34 -0.66 10.68 -1 10 C0.98 10 2.96 10 5 10 C3.68 8.35 2.36 6.7 1 5 C1.99 4.67 2.98 4.34 4 4 C4.33 4.66 4.66 5.32 5 6 C5 5.01 5 4.02 5 3 C2.03 2.505 2.03 2.505 -1 2 C-0.67 1.34 -0.34 0.68 0 0 Z " fill="#ECBA52" transform="translate(107,82)"/>
<path d="M0 0 C0.66 0.33 1.32 0.66 2 1 C1.67 1.66 1.34 2.32 1 3 C1.99 2.67 2.98 2.34 4 2 C2.68139111 6.61513112 0.78644563 10.09897612 -2 14 C-2.99 13.67 -3.98 13.34 -5 13 C-5 11.68 -5 10.36 -5 9 C-4.01 8.34 -3.02 7.68 -2 7 C-2 5.68 -2 4.36 -2 3 C-1.34 3 -0.68 3 0 3 C0 2.01 0 1.02 0 0 Z " fill="#141F3E" transform="translate(147,75)"/>
<path d="M0 0 C0.66 0.33 1.32 0.66 2 1 C2.33 1 2.66 1 3 1 C4.66821323 1.32550502 6.33499557 1.65846063 8 2 C8 2.66 8 3.32 8 4 C6.46875 5.2890625 6.46875 5.2890625 4.5 6.625 C3.8503125 7.07101563 3.200625 7.51703125 2.53125 7.9765625 C1.77328125 8.48316406 1.77328125 8.48316406 1 9 C0.54625 8.525625 0.0925 8.05125 -0.375 7.5625 C-1.93258204 5.90972192 -1.93258204 5.90972192 -4 5 C-2.68 3.35 -1.36 1.7 0 0 Z " fill="#E6ECF0" transform="translate(119,178)"/>
<path d="M0 0 C6.61085476 0.48969295 11.94977014 2.33442742 18 5 C17.67 5.66 17.34 6.32 17 7 C13.14435523 6.49267832 9.43312202 5.65141866 5.6875 4.625 C4.82511719 4.39039062 3.96273437 4.15578125 3.07421875 3.9140625 C2.38972656 3.61242187 1.70523438 3.31078125 1 3 C0.67 2.01 0.34 1.02 0 0 Z " fill="#242638" transform="translate(63,109)"/>
<path d="M0 0 C3.15234375 -0.36328125 3.15234375 -0.36328125 6.9375 -0.3125 C8.18402344 -0.30863281 9.43054688 -0.30476562 10.71484375 -0.30078125 C14 0 14 0 17 2 C13.13276369 3.26582219 9.26848738 3.1118765 5.25 3.0625 C4.55261719 3.05798828 3.85523438 3.05347656 3.13671875 3.04882812 C1.42444197 3.0371002 -0.28779033 3.01916653 -2 3 C-1.34 2.01 -0.68 1.02 0 0 Z " fill="#F8FBFF" transform="translate(49,164)"/>
<path d="M0 0 C4.95 0 9.9 0 15 0 C15 0.66 15 1.32 15 2 C15.33 2.99 15.66 3.98 16 5 C12.7 5 9.4 5 6 5 C6.33 4.01 6.66 3.02 7 2 C4.69 1.67 2.38 1.34 0 1 C0 0.67 0 0.34 0 0 Z " fill="#2B3650" transform="translate(162,157)"/>
<path d="M0 0 C0.66 0.33 1.32 0.66 2 1 C2 1.66 2 2.32 2 3 C2.66 3 3.32 3 4 3 C4 5.97 4 8.94 4 12 C3.67 11.34 3.34 10.68 3 10 C1.02 10.99 1.02 10.99 -1 12 C-1.02687279 10.18757948 -1.04633715 8.37504767 -1.0625 6.5625 C-1.07410156 5.55316406 -1.08570313 4.54382812 -1.09765625 3.50390625 C-1 1 -1 1 0 0 Z " fill="#EAECED" transform="translate(172,32)"/>
<path d="M0 0 C0.66 0.33 1.32 0.66 2 1 C2 1.66 2 2.32 2 3 C0.35546875 4.62109375 0.35546875 4.62109375 -1.8125 6.4375 C-4.82463265 8.97339332 -4.82463265 8.97339332 -7.63671875 11.72265625 C-9 13 -9 13 -11 13 C-10.42400084 9.46616733 -9.1890605 7.83087229 -6.625 5.375 C-6.01914063 4.78460938 -5.41328125 4.19421875 -4.7890625 3.5859375 C-3 2 -3 2 0 0 Z " fill="#1C2233" transform="translate(133,121)"/>
<path d="M0 0 C0.33 0 0.66 0 1 0 C1 2.64 1 5.28 1 8 C0.01 7.67 -0.98 7.34 -2 7 C-1.9175 7.763125 -1.835 8.52625 -1.75 9.3125 C-2 12 -2 12 -4 13.8125 C-4.66 14.204375 -5.32 14.59625 -6 15 C-6.66 12.69 -7.32 10.38 -8 8 C-6.68 8 -5.36 8 -4 8 C-3.566875 6.8553125 -3.566875 6.8553125 -3.125 5.6875 C-2 3 -2 3 0 0 Z " fill="#102346" transform="translate(157,55)"/>
<path d="M0 0 C1.98 0.99 3.96 1.98 6 3 C4.49776416 7.20626034 1.71449966 8.73900021 -2 11 C-1.125 3.375 -1.125 3.375 0 0 Z " fill="#E2E8F1" transform="translate(127,102)"/>
<path d="M0 0 C2.23551759 3.35327639 2.17283528 3.90743657 1.625 7.6875 C1.51414062 8.49574219 1.40328125 9.30398437 1.2890625 10.13671875 C1.19367188 10.75160156 1.09828125 11.36648437 1 12 C1.94875 11.21625 2.8975 10.4325 3.875 9.625 C4.40867188 9.18414062 4.94234375 8.74328125 5.4921875 8.2890625 C6.71051161 7.24749008 7.86660097 6.13339903 9 5 C8.49452628 9.08055151 6.49911118 10.66272295 3.4375 13.25 C2.61121094 13.95640625 1.78492187 14.6628125 0.93359375 15.390625 C0.29550781 15.92171875 -0.34257813 16.4528125 -1 17 C-1.66 16.67 -2.32 16.34 -3 16 C-2.01 10.72 -1.02 5.44 0 0 Z " fill="#3B3F4A" transform="translate(125,100)"/>
<path d="M0 0 C1.26948448 0.54482042 2.54036608 1.08639491 3.8125 1.625 C5.3903125 2.305625 5.3903125 2.305625 7 3 C7 3.33 7 3.66 7 4 C4.01259563 4.17070882 2.1565285 4.06708364 -0.625 2.875 C-1.40875 2.58625 -2.1925 2.2975 -3 2 C-3.99 2.66 -4.98 3.32 -6 4 C-6.99 4 -7.98 4 -9 4 C-9 2.35 -9 0.7 -9 -1 C-5.31290944 -2.36558909 -3.49859825 -1.627255 0 0 Z " fill="#FCF5E3" transform="translate(73,60)"/>
<path d="M0 0 C1.32 0 2.64 0 4 0 C4 1.32 4 2.64 4 4 C5.65 3.67 7.3 3.34 9 3 C9.33 3.66 9.66 4.32 10 5 C9.0625 7.625 9.0625 7.625 8 10 C6.84481082 9.09515208 5.70114594 8.1755794 4.5625 7.25 C3.60537109 6.48429688 3.60537109 6.48429688 2.62890625 5.703125 C0.81189446 3.80332371 0.39576803 2.56413092 0 0 Z " fill="#232E49" transform="translate(96,166)"/>
<path d="M0 0 C1.1796875 1.640625 1.1796875 1.640625 2 4 C0.8828125 6.796875 0.8828125 6.796875 -0.875 9.75 C-1.44992188 10.73484375 -2.02484375 11.7196875 -2.6171875 12.734375 C-3.07351562 13.48203125 -3.52984375 14.2296875 -4 15 C-4.66 15 -5.32 15 -6 15 C-5.39644592 11.14974121 -4.23227397 8.13898841 -2.4375 4.6875 C-1.98246094 3.80449219 -1.52742187 2.92148437 -1.05859375 2.01171875 C-0.53458984 1.01591797 -0.53458984 1.01591797 0 0 Z " fill="#1C2237" transform="translate(155,41)"/>
<path d="M0 0 C2.97 0.33 5.94 0.66 9 1 C9 2.32 9 3.64 9 5 C5.37 4.67 1.74 4.34 -2 4 C-1.34 2.68 -0.68 1.36 0 0 Z " fill="#DDE5EB" transform="translate(180,164)"/>
<path d="M0 0 C2.62697064 -0.22137393 5.00893964 -0.28162025 7.625 -0.1875 C8.33140625 -0.17396484 9.0378125 -0.16042969 9.765625 -0.14648438 C11.51074128 -0.1111104 13.25546608 -0.05730221 15 0 C14.67 0.66 14.34 1.32 14 2 C11.28553021 2.31241455 8.66090639 2.51336592 5.9375 2.625 C5.17888672 2.66367188 4.42027344 2.70234375 3.63867188 2.7421875 C1.75952805 2.83673562 -0.12020336 2.91946756 -2 3 C-1.34 2.01 -0.68 1.02 0 0 Z " fill="#FBFBFF" transform="translate(160,164)"/>
<path d="M0 0 C1.32 0 2.64 0 4 0 C3.67 1.32 3.34 2.64 3 4 C-1.51815281 4.88277755 -5.77512694 5.10589503 -10.375 5.0625 C-12.24285156 5.04896484 -12.24285156 5.04896484 -14.1484375 5.03515625 C-15.55996094 5.01775391 -15.55996094 5.01775391 -17 5 C-17 4.67 -17 4.34 -17 4 C-8.585 3.01 -8.585 3.01 0 2 C0 1.34 0 0.68 0 0 Z " fill="#353D5A" transform="translate(67,159)"/>
<path d="M0 0 C1.12148437 0.12568359 1.12148437 0.12568359 2.265625 0.25390625 C3.74289063 0.40666016 3.74289063 0.40666016 5.25 0.5625 C6.71179688 0.71912109 6.71179688 0.71912109 8.203125 0.87890625 C10.7631352 0.98974468 12.58148159 0.77738092 15 0 C15 1.32 15 2.64 15 4 C13.56208484 3.85831863 12.1246763 3.71148957 10.6875 3.5625 C9.88699219 3.48128906 9.08648437 3.40007812 8.26171875 3.31640625 C6 3 6 3 3 2 C3 2.66 3 3.32 3 4 C1.68 4.33 0.36 4.66 -1 5 C-0.67 3.35 -0.34 1.7 0 0 Z " fill="#192852" transform="translate(160,146)"/>
<path d="M0 0 C3 2 3 2 3.8125 3.9375 C4 6 4 6 2 9 C-0.64 7.02 -3.28 5.04 -6 3 C-4.68 2.34 -3.36 1.68 -2 1 C-1.34 1.33 -0.68 1.66 0 2 C0 1.34 0 0.68 0 0 Z " fill="#E9F0F2" transform="translate(92,115)"/>
<path d="M0 0 C1.46067199 0.45082469 2.91848032 0.91093537 4.375 1.375 C5.18710938 1.63023437 5.99921875 1.88546875 6.8359375 2.1484375 C9 3 9 3 11 5 C9.5 6.1875 9.5 6.1875 7 7 C4.21175762 6.27101296 1.62334908 5.1843275 -1 4 C-0.67 2.68 -0.34 1.36 0 0 Z " fill="#D8E1E7" transform="translate(75,157)"/>
<path d="M0 0 C0 0.99 0 1.98 0 3 C-0.66 2.67 -1.32 2.34 -2 2 C-1.34 1.34 -0.68 0.68 0 0 Z M-4 3 C-3.34 3.33 -2.68 3.66 -2 4 C-2.99 5.32 -3.98 6.64 -5 8 C-4.67 8.66 -4.34 9.32 -4 10 C-4.99 10 -5.98 10 -7 10 C-7.33 10.66 -7.66 11.32 -8 12 C-8.66 12 -9.32 12 -10 12 C-11.62514468 13.45833358 -11.62514468 13.45833358 -13 15 C-13.66 14.67 -14.32 14.34 -15 14 C-11.37 10.37 -7.74 6.74 -4 3 Z " fill="#E6EBF2" transform="translate(139,137)"/>
<path d="M0 0 C0.99 0.33 1.98 0.66 3 1 C2.401875 1.70125 1.80375 2.4025 1.1875 3.125 C-0.98959025 5.98631862 -2.47944995 8.75155217 -4 12 C-4.66666667 13.33333333 -5.33333333 14.66666667 -6 16 C-6 15.34 -6 14.68 -6 14 C-6.66 13.67 -7.32 13.34 -8 13 C-5.36 8.71 -2.72 4.42 0 0 Z " fill="#EAECF3" transform="translate(170,46)"/>
<path d="M0 0 C1.32 0 2.64 0 4 0 C3.74438677 2.3431213 3.40729228 4.67843403 3 7 C2.01 7.495 2.01 7.495 1 8 C2.32 8.33 3.64 8.66 5 9 C2.36 9.33 -0.28 9.66 -3 10 C-3 8.35 -3 6.7 -3 5 C-2.01 5 -1.02 5 0 5 C0 4.34 0 3.68 0 3 C0.66 3 1.32 3 2 3 C2 2.34 2 1.68 2 1 C1.34 0.67 0.68 0.34 0 0 Z " fill="#1F2C4E" transform="translate(187,169)"/>
<path d="M0 0 C1.43861294 0.08746284 2.87597508 0.19565348 4.3125 0.3125 C5.11300781 0.37050781 5.91351563 0.42851563 6.73828125 0.48828125 C9.37449551 1.08473042 10.33826294 1.90803975 12 4 C12 4.33 12 4.66 12 5 C8.04 5 4.08 5 0 5 C0 4.01 0 3.02 0 2 C0.99 2 1.98 2 3 2 C2.01 1.34 1.02 0.68 0 0 Z " fill="#283254" transform="translate(159,80)"/>
<path d="M0 0 C2.24973447 -0.054138 4.49984383 -0.09285491 6.75 -0.125 C8.00296875 -0.14820312 9.2559375 -0.17140625 10.546875 -0.1953125 C13.72820492 -0.01537302 15.36521896 0.31001418 18 2 C11.72792299 4.00706464 6.07246147 2.98284456 0 1 C0 0.67 0 0.34 0 0 Z " fill="#111730" transform="translate(50,81)"/>
<path d="M0 0 C-1.22976562 0.48919922 -1.22976562 0.48919922 -2.484375 0.98828125 C-3.56203125 1.42527344 -4.6396875 1.86226562 -5.75 2.3125 C-6.81734375 2.74175781 -7.8846875 3.17101563 -8.984375 3.61328125 C-11.67236635 4.84933945 -13.6734785 6.21318957 -16 8 C-16.66 8 -17.32 8 -18 8 C-18 7.01 -18 6.02 -18 5 C-17.01 5 -16.02 5 -15 5 C-15 4.34 -15 3.68 -15 3 C-12.87790224 2.30359327 -10.75221473 1.61811643 -8.625 0.9375 C-6.84996094 0.36322266 -6.84996094 0.36322266 -5.0390625 -0.22265625 C-2 -1 -2 -1 0 0 Z " fill="#FEF7D0" transform="translate(146,56)"/>
<path d="M0 0 C0 0.99 0 1.98 0 3 C-1.98 3.66 -3.96 4.32 -6 5 C-6 4.34 -6 3.68 -6 3 C-6.78375 3.515625 -7.5675 4.03125 -8.375 4.5625 C-9.24125 5.036875 -10.1075 5.51125 -11 6 C-11.66 5.67 -12.32 5.34 -13 5 C-4.738041 -0.74031891 -4.738041 -0.74031891 0 0 Z " fill="#E7F0F6" transform="translate(148,168)"/>
<path d="M0 0 C0.66 0.33 1.32 0.66 2 1 C0.515 3.475 0.515 3.475 -1 6 C-0.34 6.33 0.32 6.66 1 7 C0.34 7 -0.32 7 -1 7 C-1.33 7.99 -1.66 8.98 -2 10 C-4.475 9.01 -4.475 9.01 -7 8 C-6.02133662 6.85373678 -5.04205413 5.70800212 -4.0625 4.5625 C-3.51722656 3.92441406 -2.97195312 3.28632812 -2.41015625 2.62890625 C-1.63204305 1.73008851 -0.84063472 0.84063472 0 0 Z " fill="#F9FCEC" transform="translate(122,73)"/>
<path d="M0 0 C2.31 0.33 4.62 0.66 7 1 C6.67 1.66 6.34 2.32 6 3 C8.475 3.99 8.475 3.99 11 5 C7.72814447 6.07310858 5.57052408 5.89263102 2.25 5.0625 C1.45078125 4.86785156 0.6515625 4.67320312 -0.171875 4.47265625 C-1.07679687 4.23869141 -1.07679687 4.23869141 -2 4 C-1.34 2.68 -0.68 1.36 0 0 Z " fill="#101B3A" transform="translate(65,178)"/>
<path d="M0 0 C0.33 0.66 0.66 1.32 1 2 C1.66 2.33 2.32 2.66 3 3 C1.21475351 4.19713017 -0.5784028 5.38247279 -2.375 6.5625 C-3.87160156 7.55443359 -3.87160156 7.55443359 -5.3984375 8.56640625 C-6.25695312 9.03949219 -7.11546875 9.51257813 -8 10 C-8.66 9.67 -9.32 9.34 -10 9 C-8.89902432 7.87187697 -7.79408444 6.74762189 -6.6875 5.625 C-6.07261719 4.99851563 -5.45773438 4.37203125 -4.82421875 3.7265625 C-3 2 -3 2 0 0 Z " fill="#1B1F32" transform="translate(133,169)"/>
<path d="M0 0 C1.9375 0.8125 1.9375 0.8125 4 2 C4.33 2.99 4.66 3.98 5 5 C3.68 4.67 2.36 4.34 1 4 C1 4.66 1 5.32 1 6 C2.32 6 3.64 6 5 6 C4.34 7.65 3.68 9.3 3 11 C-0.918897 6.71370641 -0.918897 6.71370641 -1.3125 3.25 C-1 1 -1 1 0 0 Z " fill="#121D38" transform="translate(137,87)"/>
<path d="M0 0 C0.66 0.33 1.32 0.66 2 1 C2.33 0.67 2.66 0.34 3 0 C3.99 0.99 4.98 1.98 6 3 C3.525 4.485 3.525 4.485 1 6 C1.99 6.33 2.98 6.66 4 7 C3.01 7.33 2.02 7.66 1 8 C0.34 7.34 -0.32 6.68 -1 6 C-0.67 5.34 -0.34 4.68 0 4 C-0.66 3.67 -1.32 3.34 -2 3 C-2.33 2.34 -2.66 1.68 -3 1 C-2.01 0.67 -1.02 0.34 0 0 Z " fill="#0C1C38" transform="translate(98,184)"/>
<path d="M0 0 C1.15518918 0.90484792 2.29885406 1.8244206 3.4375 2.75 C4.07558594 3.26046875 4.71367188 3.7709375 5.37109375 4.296875 C7.18810554 6.19667629 7.60423197 7.43586908 8 10 C4.78956118 8.61811547 2.95063635 7.07578097 0.75 4.375 C0.22921875 3.74335938 -0.2915625 3.11171875 -0.828125 2.4609375 C-1.21484375 1.97882813 -1.6015625 1.49671875 -2 1 C-1.34 0.67 -0.68 0.34 0 0 Z " fill="#F6F8FD" transform="translate(98,171)"/>
<path d="M0 0 C3.7952131 1.49097658 5.61042731 3.75700849 8 7 C6.68 7.33 5.36 7.66 4 8 C3.34 7.01 2.68 6.02 2 5 C1.34 4.67 0.68 4.34 0 4 C-0.33 4.66 -0.66 5.32 -1 6 C-1.625 4.125 -1.625 4.125 -2 2 C-1.34 1.34 -0.68 0.68 0 0 Z " fill="#0E1A32" transform="translate(96,162)"/>
<path d="M0 0 C0.77772405 2.33317216 1.42415568 4.61435923 2 7 C-1 7 -1 7 -3 6 C-3.33 6.66 -3.66 7.32 -4 8 C-4.33 6.35 -4.66 4.7 -5 3 C-3.35 2.01 -1.7 1.02 0 0 Z " fill="#121E38" transform="translate(133,157)"/>
<path d="M0 0 C4.12751449 0.60698743 7.3321148 2.03810791 11 4 C10.01 4.66 9.02 5.32 8 6 C7.484375 5.62875 6.96875 5.2575 6.4375 4.875 C2.87647549 3.59668351 0.4825768 4.79449265 -3 6 C-2.67 5.34 -2.34 4.68 -2 4 C-1.34 4 -0.68 4 0 4 C0 2.68 0 1.36 0 0 Z " fill="#111B38" transform="translate(75,150)"/>
<path d="M0 0 C3.95820859 0.56545837 6.6659053 1.80902348 10 4 C9.34 5.32 8.68 6.64 8 8 C4.52659875 6.6106395 3.48205244 5.38754843 2 2 C1.34 1.34 0.68 0.68 0 0 Z " fill="#131C35" transform="translate(85,88)"/>
<path d="M0 0 C0.66 0.99 1.32 1.98 2 3 C1.01 3 0.02 3 -1 3 C-2.68236471 3.62599617 -4.3523962 4.28752268 -6 5 C-6 4.34 -6 3.68 -6 3 C-6.66 2.67 -7.32 2.34 -8 2 C-6.08571525 -1.82856951 -3.68188829 -1.10456649 0 0 Z " fill="#23304F" transform="translate(107,188)"/>
<path d="M0 0 C0.66 0.33 1.32 0.66 2 1 C2 3.64 2 6.28 2 9 C1.01 9.33 0.02 9.66 -1 10 C-1.66 9.67 -2.32 9.34 -3 9 C-3 7.68 -3 6.36 -3 5 C-2.34 4.67 -1.68 4.34 -1 4 C-0.34786708 1.97536745 -0.34786708 1.97536745 0 0 Z " fill="#F3F9F9" transform="translate(100,85)"/>
<path d="M0 0 C3.36720387 1.39332574 4.9859524 2.9789286 7 6 C6.67 6.66 6.34 7.32 6 8 C3.36 6.68 0.72 5.36 -2 4 C-1.34 2.68 -0.68 1.36 0 0 Z " fill="#212740" transform="translate(82,86)"/>
<path d="M0 0 C0.99 0.66 1.98 1.32 3 2 C1.60667426 5.36720387 0.0210714 6.9859524 -3 9 C-4 6 -4 6 -3.1875 3.375 C-2 1 -2 1 0 0 Z " fill="#F5FAFE" transform="translate(117,183)"/>
<path d="M0 0 C1.875 0.125 1.875 0.125 4 1 C5.25 4.0625 5.25 4.0625 6 7 C2.7 7.33 -0.6 7.66 -4 8 C0 5 0 5 2 4 C1.34 2.68 0.68 1.36 0 0 Z " fill="#0E1E3C" transform="translate(34,169)"/>
<path d="M0 0 C2.475 0.99 2.475 0.99 5 2 C1.67692308 5.93846154 1.67692308 5.93846154 -1.75 6.25 C-2.4925 6.1675 -3.235 6.085 -4 6 C-1.125 1.125 -1.125 1.125 0 0 Z " fill="#131B38" transform="translate(121,168)"/>
<path d="M0 0 C1.25425781 0.00902344 2.50851563 0.01804688 3.80078125 0.02734375 C4.75339844 0.03894531 5.70601562 0.05054688 6.6875 0.0625 C6.6875 0.3925 6.6875 0.7225 6.6875 1.0625 C4.64678485 1.40160994 2.60487379 1.73352704 0.5625 2.0625 C-1.14292969 2.3409375 -1.14292969 2.3409375 -2.8828125 2.625 C-6.07387602 3.03206049 -9.10067791 3.14059902 -12.3125 3.0625 C-12.3125 2.4025 -12.3125 1.7425 -12.3125 1.0625 C-8.15623632 0.05323521 -4.26884906 -0.03989579 0 0 Z " fill="#0F1631" transform="translate(169.3125,166.9375)"/>
<path d="M0 0 C1.27450447 0.59638333 2.54446877 1.20247416 3.8125 1.8125 C4.52019531 2.14894531 5.22789063 2.48539062 5.95703125 2.83203125 C8.01129035 4.00645471 9.41616278 5.25628016 11 7 C9.1875 7.6875 9.1875 7.6875 7 8 C5.25 6.5625 5.25 6.5625 4 5 C3.67 5.66 3.34 6.32 3 7 C0 2.25 0 2.25 0 0 Z " fill="#DFE5EC" transform="translate(78,116)"/>
<path d="M0 0 C2.97 0.495 2.97 0.495 6 1 C6 3.31 6 5.62 6 8 C5.01 7.01 4.02 6.02 3 5 C2.67 6.98 2.34 8.96 2 11 C1.67 11 1.34 11 1 11 C0.67 7.37 0.34 3.74 0 0 Z " fill="#131B3A" transform="translate(109,111)"/>
<path d="M0 0 C0.66 0.33 1.32 0.66 2 1 C2 2.65 2 4.3 2 6 C1.01 6 0.02 6 -1 6 C-0.67 6.99 -0.34 7.98 0 9 C-0.99 9 -1.98 9 -3 9 C-2.4140625 2.84765625 -2.4140625 2.84765625 -2 1 C-1.34 0.67 -0.68 0.34 0 0 Z " fill="#FEF9EF" transform="translate(113,72)"/>
<path d="M0 0 C0.66 0.33 1.32 0.66 2 1 C-0.475 5.455 -0.475 5.455 -3 10 C-4.32 9.67 -5.64 9.34 -7 9 C-5.6875 6.0625 -5.6875 6.0625 -4 3 C-3.01 2.67 -2.02 2.34 -1 2 C-0.67 1.34 -0.34 0.68 0 0 Z " fill="#1E2951" transform="translate(156,53)"/>
<path d="M0 0 C0.7425 0.0825 1.485 0.165 2.25 0.25 C2.25 0.91 2.25 1.57 2.25 2.25 C0.5 3.5390625 0.5 3.5390625 -1.75 4.875 C-2.4925 5.32101563 -3.235 5.76703125 -4 6.2265625 C-4.5775 6.56429687 -5.155 6.90203125 -5.75 7.25 C-6.08 6.26 -6.41 5.27 -6.75 4.25 C-3.42692308 0.31153846 -3.42692308 0.31153846 0 0 Z " fill="#EBF0F5" transform="translate(134.75,152.75)"/>
<path d="M0 0 C0.66 0.99 1.32 1.98 2 3 C-0.97 4.65 -3.94 6.3 -7 8 C-7 6.68 -7 5.36 -7 4 C-4.69 2.68 -2.38 1.36 0 0 Z " fill="#2E3143" transform="translate(142,115)"/>
<path d="M0 0 C1.155 0.165 2.31 0.33 3.5 0.5 C7.69907803 1.03238311 11.77063041 1.07552446 16 1 C12.88089144 2.79275866 10.32317572 3.34290718 6.75 3.625 C5.85796875 3.69976562 4.9659375 3.77453125 4.046875 3.8515625 C3.03367188 3.92503906 3.03367188 3.92503906 2 4 C2 3.34 2 2.68 2 2 C1.34 1.34 0.68 0.68 0 0 Z " fill="#0F1834" transform="translate(152,179)"/>
<path d="M0 0 C3.15856443 0.59720756 3.92386937 0.91963989 6.25 3.375 C8 6 8 6 8 9 C4.46766245 7.82255415 4.13691925 7.04394359 2.3125 3.9375 C1.87550781 3.20402344 1.43851562 2.47054687 0.98828125 1.71484375 C0.49908203 0.86599609 0.49908203 0.86599609 0 0 Z " fill="#1B2030" transform="translate(94,144)"/>
<path d="M0 0 C2.9375 0.75 2.9375 0.75 6 2 C6.875 4.125 6.875 4.125 7 6 C4.69 5.67 2.38 5.34 0 5 C0.66 4.34 1.32 3.68 2 3 C1.34 2.01 0.68 1.02 0 0 Z M-2 6 C-0.02 6 1.96 6 4 6 C4 6.66 4 7.32 4 8 C1.03 7.505 1.03 7.505 -2 7 C-2 6.67 -2 6.34 -2 6 Z " fill="#E8EAEE" transform="translate(70,113)"/>
<path d="M0 0 C1.98 0 3.96 0 6 0 C6.33 1.65 6.66 3.3 7 5 C6.34 4.67 5.68 4.34 5 4 C5 3.34 5 2.68 5 2 C4.01 2 3.02 2 2 2 C2 3.65 2 5.3 2 7 C1.34 6.67 0.68 6.34 0 6 C0 4.02 0 2.04 0 0 Z " fill="#F7B526" transform="translate(106,84)"/>
<path d="M0 0 C1.65 0 3.3 0 5 0 C5.33 0.66 5.66 1.32 6 2 C4.68 3.65 3.36 5.3 2 7 C2 6.34 2 5.68 2 5 C1.34 5 0.68 5 0 5 C-0.33 5.66 -0.66 6.32 -1 7 C-1 5.68 -1 4.36 -1 3 C-0.01 2.67 0.98 2.34 2 2 C1.34 1.34 0.68 0.68 0 0 Z " fill="#252D41" transform="translate(165,44)"/>
<path d="M0 0 C1.98 0 3.96 0 6 0 C5.67 0.66 5.34 1.32 5 2 C5.66 2.66 6.32 3.32 7 4 C2.545 4.495 2.545 4.495 -2 5 C-1.34 3.35 -0.68 1.7 0 0 Z " fill="#D4DCE3" transform="translate(43,164)"/>
<path d="M0 0 C0 0.66 0 1.32 0 2 C-0.99 2.33 -1.98 2.66 -3 3 C-3.33 3.99 -3.66 4.98 -4 6 C-5.32 6 -6.64 6 -8 6 C-8 6.66 -8 7.32 -8 8 C-9.32 7.67 -10.64 7.34 -12 7 C-10.3790787 5.82767315 -8.75313167 4.6622923 -7.125 3.5 C-6.22007812 2.8503125 -5.31515625 2.200625 -4.3828125 1.53125 C-2 0 -2 0 0 0 Z " fill="#FEF5C4" transform="translate(136,65)"/>
<path d="M0 0 C4.29238623 1.65091778 6.8793915 4.73754566 10 8 C9.67 8.66 9.34 9.32 9 10 C7.8944811 9.06409496 6.79064547 8.12620142 5.6875 7.1875 C5.07261719 6.66542969 4.45773438 6.14335937 3.82421875 5.60546875 C2.14575321 4.12827531 0.56117966 2.59960869 -1 1 C-0.67 0.67 -0.34 0.34 0 0 Z " fill="#47494E" transform="translate(95,173)"/>
<path d="M0 0 C2.25 1.9375 2.25 1.9375 4 4 C1 6 1 6 -1.1875 5.625 C-1.785625 5.41875 -2.38375 5.2125 -3 5 C-3.33 3.68 -3.66 2.36 -4 1 C-2.25 0.25 -2.25 0.25 0 0 Z " fill="#1D2743" transform="translate(154,159)"/>
<path d="M0 0 C4.875 4.5 4.875 4.5 6 9 C3.36 7.02 0.72 5.04 -2 3 C-1.34 2.01 -0.68 1.02 0 0 Z " fill="#E2BF67" transform="translate(98,72)"/>
<path d="M0 0 C1.32 0 2.64 0 4 0 C4 0.99 4 1.98 4 3 C4.99 3.33 5.98 3.66 7 4 C2.545 4.495 2.545 4.495 -2 5 C-1.34 3.35 -0.68 1.7 0 0 Z " fill="#1E2B49" transform="translate(61,177)"/>
<path d="M0 0 C0 0.66 0 1.32 0 2 C-1.32 2 -2.64 2 -4 2 C-4.33 2.99 -4.66 3.98 -5 5 C-7.475 4.01 -7.475 4.01 -10 3 C-9 1 -9 1 -7.25 0.375 C-4.79549443 -0.03408426 -2.4840589 -0.06900164 0 0 Z " fill="#101A3D" transform="translate(61,146)"/>
<path d="M0 0 C-0.99 0.33 -1.98 0.66 -3 1 C-3.33 1.66 -3.66 2.32 -4 3 C-4.99 2.34 -5.98 1.68 -7 1 C-7 0.34 -7 -0.32 -7 -1 C-7.66 -1.33 -8.32 -1.66 -9 -2 C-5.08496436 -3.59501452 -3.33516624 -2.31608767 0 0 Z " fill="#EAEDF1" transform="translate(103,104)"/>
<path d="M0 0 C0 1.32 0 2.64 0 4 C-1.65 4.33 -3.3 4.66 -5 5 C-5.33 3.68 -5.66 2.36 -6 1 C-3 0 -3 0 0 0 Z " fill="#181E31" transform="translate(47,89)"/>
<path d="M0 0 C-0.99 1.98 -1.98 3.96 -3 6 C-4.65 6 -6.3 6 -8 6 C-8 5.34 -8 4.68 -8 4 C-6.68 4 -5.36 4 -4 4 C-4 3.01 -4 2.02 -4 1 C-4.99 0.67 -5.98 0.34 -7 0 C-3.98968256 -0.93423645 -3.13349732 -1.04449911 0 0 Z " fill="#D8B473" transform="translate(148,57)"/>
<path d="M0 0 C-0.639375 0.28875 -1.27875 0.5775 -1.9375 0.875 C-4.15206079 1.82823451 -4.15206079 1.82823451 -5 4 C-7.4375 5.6875 -7.4375 5.6875 -10 7 C-10.66 6.67 -11.32 6.34 -12 6 C-4.43243243 -2.21621622 -4.43243243 -2.21621622 0 0 Z " fill="#DAE0E9" transform="translate(128,192)"/>
<path d="M0 0 C0.66 0.33 1.32 0.66 2 1 C2.33 1 2.66 1 3 1 C3.66 1.33 4.32 1.66 5 2 C1.67692308 5.93846154 1.67692308 5.93846154 -1.75 6.25 C-2.4925 6.1675 -3.235 6.085 -4 6 C-2.68 4.02 -1.36 2.04 0 0 Z " fill="#B9BFC4" transform="translate(119,178)"/>
<path d="M0 0 C0.66 1.32 1.32 2.64 2 4 C0.02 4.66 -1.96 5.32 -4 6 C-4 4.35 -4 2.7 -4 1 C-2.68 0.67 -1.36 0.34 0 0 Z " fill="#1B214A" transform="translate(182,158)"/>
<path d="M0 0 C0.33 0 0.66 0 1 0 C1 2.97 1 5.94 1 9 C2.65 9 4.3 9 6 9 C4.75 10.5625 4.75 10.5625 3 12 C1.68 11.67 0.36 11.34 -1 11 C-0.67 7.37 -0.34 3.74 0 0 Z " fill="#3C425D" transform="translate(52,136)"/>
<path d="M0 0 C2.31 1.98 4.62 3.96 7 6 C6.01 6.66 5.02 7.32 4 8 C2 6.25 2 6.25 0 4 C0 2.68 0 1.36 0 0 Z " fill="#232B41" transform="translate(89,137)"/>
<path d="M0 0 C4.6875 3.61328125 4.6875 3.61328125 6 5 C6 5.99 6 6.98 6 8 C2.17053157 6.54744301 0.87949705 4.57104439 -1 1 C-0.67 0.67 -0.34 0.34 0 0 Z " fill="#151C29" transform="translate(96,126)"/>
<path d="M0 0 C2.64 0.99 5.28 1.98 8 3 C7.67 3.66 7.34 4.32 7 5 C1.25 4.125 1.25 4.125 -1 3 C-0.67 2.01 -0.34 1.02 0 0 Z " fill="#2F374A" transform="translate(73,111)"/>
<path d="M0 0 C1.32 0.33 2.64 0.66 4 1 C4 6.28 4 11.56 4 17 C3.67 17 3.34 17 3 17 C2.95101562 16.00097656 2.90203125 15.00195312 2.8515625 13.97265625 C2.77679688 12.68230469 2.70203125 11.39195313 2.625 10.0625 C2.55539063 8.77472656 2.48578125 7.48695312 2.4140625 6.16015625 C2.27742187 5.11730469 2.14078125 4.07445313 2 3 C1.34 2.67 0.68 2.34 0 2 C0 1.34 0 0.68 0 0 Z " fill="#0B1127" transform="translate(181,90)"/>
<path d="M0 0 C1.9375 0.375 1.9375 0.375 4 1 C4.33 1.66 4.66 2.32 5 3 C5.99 3.33 6.98 3.66 8 4 C8.33 6.31 8.66 8.62 9 11 C5.21794872 6.46153846 5.21794872 6.46153846 3.9375 3.75 C3.06502056 1.64005363 3.06502056 1.64005363 0 1 C0 0.67 0 0.34 0 0 Z " fill="#FEEFCC" transform="translate(95,68)"/>
<path d="M0 0 C0.66 0 1.32 0 2 0 C1.46930939 3.82097239 0.50298434 6.06171403 -2 9 C-2.33 7.02 -2.66 5.04 -3 3 C-2.01 2.67 -1.02 2.34 0 2 C0 1.34 0 0.68 0 0 Z " fill="#E7EAEA" transform="translate(142,62)"/>
<path d="M0 0 C0.66 0 1.32 0 2 0 C1.67 0.99 1.34 1.98 1 3 C0.01 3 -0.98 3 -2 3 C-2 4.65 -2 6.3 -2 8 C-3.32 7.67 -4.64 7.34 -6 7 C-4.6875 4.5 -4.6875 4.5 -3 2 C-2.01 2 -1.02 2 0 2 C0 1.34 0 0.68 0 0 Z " fill="#FEF5DE" transform="translate(136,40)"/>
<path d="M0 0 C1.32 0.33 2.64 0.66 4 1 C3.625 3.9375 3.625 3.9375 3 7 C2.01 7.495 2.01 7.495 1 8 C0.67 5.36 0.34 2.72 0 0 Z " fill="#E9BC4E" transform="translate(128,40)"/>
<path d="M0 0 C1.98 0 3.96 0 6 0 C4.515 1.485 4.515 1.485 3 3 C3.99 3.66 4.98 4.32 6 5 C5.67 5.66 5.34 6.32 5 7 C4.01 6.67 3.02 6.34 2 6 C2 5.34 2 4.68 2 4 C1.34 4 0.68 4 0 4 C0 2.68 0 1.36 0 0 Z " fill="#FBEFC3" transform="translate(122,38)"/>
<path d="M0 0 C2.875 0.3125 2.875 0.3125 6 1 C6.66 1.99 7.32 2.98 8 4 C5.39417629 4.93065133 4.35801776 5.14917407 1.75 4.0625 C1.1725 3.711875 0.595 3.36125 0 3 C0 2.01 0 1.02 0 0 Z " fill="#171F41" transform="translate(103,190)"/>
<path d="M0 0 C0.33 0 0.66 0 1 0 C1.18867925 9.62264151 1.18867925 9.62264151 -1 14 C-1.99 13.67 -2.98 13.34 -4 13 C-3.34 12.67 -2.68 12.34 -2 12 C-2.33 10.35 -2.66 8.7 -3 7 C-2.34 6.67 -1.68 6.34 -1 6 C-0.34227572 2.97065509 -0.34227572 2.97065509 0 0 Z " fill="#CCD5DE" transform="translate(49,81)"/>
<path d="M0 0 C0.33 1.32 0.66 2.64 1 4 C-0.875 5.0625 -0.875 5.0625 -3 6 C-3.66 5.67 -4.32 5.34 -5 5 C-5 4.01 -5 3.02 -5 2 C-3.35 2 -1.7 2 0 2 C0 1.34 0 0.68 0 0 Z " fill="#222D47" transform="translate(121,172)"/>
<path d="M0 0 C0.33 0.66 0.66 1.32 1 2 C1.99 2 2.98 2 4 2 C3.67 3.32 3.34 4.64 3 6 C0.03 5.505 0.03 5.505 -3 5 C-2.01 3.35 -1.02 1.7 0 0 Z " fill="#1A274C" transform="translate(156,168)"/>
<path d="M0 0 C0.66 0.99 1.32 1.98 2 3 C-0.31 4.32 -2.62 5.64 -5 7 C-5 6.01 -5 5.02 -5 4 C-4.34 4 -3.68 4 -3 4 C-2.67 3.01 -2.34 2.02 -2 1 C-1.34 0.67 -0.68 0.34 0 0 Z " fill="#EBF7F8" transform="translate(138,162)"/>
<path d="M0 0 C2.97 0.495 2.97 0.495 6 1 C4.02 1.99 4.02 1.99 2 3 C2 4.32 2 5.64 2 7 C1.34 7 0.68 7 0 7 C-1.125 2.25 -1.125 2.25 0 0 Z " fill="#101A3B" transform="translate(68,148)"/>
<path d="M0 0 C0.33 1.32 0.66 2.64 1 4 C-1.97 6.475 -1.97 6.475 -5 9 C-4.42647107 5.12867972 -2.51295648 2.91827204 0 0 Z " fill="#DEBC69" transform="translate(119,72)"/>
<path d="M0 0 C1.32 0 2.64 0 4 0 C2.95125002 2.62187494 2.35068687 3.79371361 -0.125 5.25 C-0.74375 5.4975 -1.3625 5.745 -2 6 C-1.125 1.125 -1.125 1.125 0 0 Z " fill="#ECB44B" transform="translate(122,69)"/>
<path d="M0 0 C1 2 1 2 0.0625 5.125 C-0.288125 6.07375 -0.63875 7.0225 -1 8 C-1.66 8 -2.32 8 -3 8 C-3.33 9.65 -3.66 11.3 -4 13 C-4.66 12.34 -5.32 11.68 -6 11 C-4.02 7.37 -2.04 3.74 0 0 Z " fill="#0B1431" transform="translate(159,44)"/>
<path d="M0 0 C-0.33 0.99 -0.66 1.98 -1 3 C-4.0625 4.1875 -4.0625 4.1875 -7 5 C-7.33 3.68 -7.66 2.36 -8 1 C-7.01 1.33 -6.02 1.66 -5 2 C-2 0 -2 0 0 0 Z " fill="#DEE6EC" transform="translate(142,171)"/>
<path d="M0 0 C1.32 0.66 2.64 1.32 4 2 C4 2.99 4 3.98 4 5 C2.02 5.99 2.02 5.99 0 7 C-0.38133299 5.0085944 -0.71325582 3.00720923 -1 1 C-0.67 0.67 -0.34 0.34 0 0 Z " fill="#E8EEEE" transform="translate(136,112)"/>
<path d="M0 0 C0.33 0.66 0.66 1.32 1 2 C-0.98 2.33 -2.96 2.66 -5 3 C-5.66 2.01 -6.32 1.02 -7 0 C-4.30234372 -1.34882814 -2.84835666 -0.80338265 0 0 Z " fill="#0E1C36" transform="translate(112,107)"/>
<path d="M0 0 C0.99 0.33 1.98 0.66 3 1 C3 1.66 3 2.32 3 3 C3.33 3.66 3.66 4.32 4 5 C2.35 5.33 0.7 5.66 -1 6 C-1.33 5.01 -1.66 4.02 -2 3 C-1.34 2.01 -0.68 1.02 0 0 Z " fill="#212748" transform="translate(128,95)"/>
<path d="M0 0 C0.99 0 1.98 0 3 0 C2.75 2.375 2.75 2.375 2 5 C-0.0625 6.3125 -0.0625 6.3125 -2 7 C-1.125 2.25 -1.125 2.25 0 0 Z " fill="#FAFEF8" transform="translate(110,95)"/>
<path d="M0 0 C5.94 0.99 5.94 0.99 12 2 C8 4 8 4 4.3125 3.25 C1 2 1 2 0 0 Z " fill="#E4B864" transform="translate(64,55)"/>
<path d="M0 0 C0.66 0.99 1.32 1.98 2 3 C0.6875 5 0.6875 5 -1 7 C-1.99 7 -2.98 7 -4 7 C-2.92598892 4.08482708 -2.22189824 2.22189824 0 0 Z " fill="#252834" transform="translate(125,146)"/>
<path d="M0 0 C0.66 0.33 1.32 0.66 2 1 C1.67 3.31 1.34 5.62 1 8 C-1.46278801 6.768606 -2.42497687 5.21935077 -4 3 C-3.01 2.67 -2.02 2.34 -1 2 C-0.67 1.34 -0.34 0.68 0 0 Z " fill="#212D4D" transform="translate(197,112)"/>
<path d="M0 0 C0.99 0.33 1.98 0.66 3 1 C3 1.66 3 2.32 3 3 C1.02 3.66 -0.96 4.32 -3 5 C-3.66 4.34 -4.32 3.68 -5 3 C-2.6875 1.4375 -2.6875 1.4375 0 0 Z " fill="#E4E8E6" transform="translate(87,112)"/>
<path d="M0 0 C0.33 0.66 0.66 1.32 1 2 C1.66 2 2.32 2 3 2 C3 2.66 3 3.32 3 4 C2.34 4 1.68 4 1 4 C1 4.66 1 5.32 1 6 C0.01 6.33 -0.98 6.66 -2 7 C-2 5.35 -2 3.7 -2 2 C-1.34 2 -0.68 2 0 2 C0 1.34 0 0.68 0 0 Z " fill="#ECEAF1" transform="translate(188,104)"/>
<path d="M0 0 C5.75 0.75 5.75 0.75 8 3 C7.67 3.66 7.34 4.32 7 5 C2.25 3.125 2.25 3.125 0 2 C0 1.34 0 0.68 0 0 Z " fill="#131F33" transform="translate(74,84)"/>
<path d="M0 0 C-2.31 1.65 -4.62 3.3 -7 5 C-6.625 2.5625 -6.625 2.5625 -6 0 C-4 -1 -4 -1 0 0 Z " fill="#FDF8CF" transform="translate(128,65)"/>
<path d="M0 0 C0.66 0.33 1.32 0.66 2 1 C0.25 6.75 0.25 6.75 -2 9 C-3 6 -3 6 -1.5625 2.8125 C-1.046875 1.884375 -0.53125 0.95625 0 0 Z " fill="#1C1012" transform="translate(148,55)"/>
<path d="M0 0 C0.99 0.66 1.98 1.32 3 2 C2.34 2.66 1.68 3.32 1 4 C-0.32 4 -1.64 4 -3 4 C-3.33 4.66 -3.66 5.32 -4 6 C-4 5.01 -4 4.02 -4 3 C-2 1.3125 -2 1.3125 0 0 Z " fill="#161C37" transform="translate(127,181)"/>
<path d="M0 0 C0.7425 0.185625 1.485 0.37125 2.25 0.5625 C4.94990963 0.99203108 6.44631077 0.85122974 9 0 C9 0.99 9 1.98 9 3 C2.25 3.125 2.25 3.125 0 2 C0 1.34 0 0.68 0 0 Z " fill="#1B274A" transform="translate(51,149)"/>
<path d="M0 0 C1.875 0.25 1.875 0.25 4 1 C5.25 3.0625 5.25 3.0625 6 5 C4.35 4.67 2.7 4.34 1 4 C0.67 2.68 0.34 1.36 0 0 Z " fill="#E9EEF3" transform="translate(84,138)"/>
<path d="M0 0 C0.99 0.66 1.98 1.32 3 2 C1.35 3.98 -0.3 5.96 -2 8 C-2.66 7.34 -3.32 6.68 -4 6 C-2.68 4.02 -1.36 2.04 0 0 Z " fill="#E8EDF3" transform="translate(138,101)"/>
<path d="M0 0 C0.66 0 1.32 0 2 0 C2.33 2.64 2.66 5.28 3 8 C1.68 7.34 0.36 6.68 -1 6 C-0.67 4.02 -0.34 2.04 0 0 Z " fill="#E2C078" transform="translate(108,28)"/>
<path d="M0 0 C0.33 0.66 0.66 1.32 1 2 C1.66 2 2.32 2 3 2 C3.33 2.99 3.66 3.98 4 5 C2.68 5.33 1.36 5.66 0 6 C-0.66 4.68 -1.32 3.36 -2 2 C-1.34 1.34 -0.68 0.68 0 0 Z " fill="#252E48" transform="translate(117,189)"/>
<path d="M0 0 C1.65 0.99 3.3 1.98 5 3 C4.67 3.66 4.34 4.32 4 5 C2.0625 4.625 2.0625 4.625 0 4 C-0.33 3.34 -0.66 2.68 -1 2 C-0.67 1.34 -0.34 0.68 0 0 Z " fill="#ECF2F7" transform="translate(94,175)"/>
<path d="M0 0 C0.33 0.99 0.66 1.98 1 3 C1.99 3.33 2.98 3.66 4 4 C2.68 4 1.36 4 0 4 C0 5.65 0 7.3 0 9 C-0.33 9 -0.66 9 -1 9 C-1.33 6.36 -1.66 3.72 -2 1 C-1.34 0.67 -0.68 0.34 0 0 Z " fill="#212B49" transform="translate(143,151)"/>
<path d="M0 0 C0.99 0 1.98 0 3 0 C3 1.32 3 2.64 3 4 C1.35 4.33 -0.3 4.66 -2 5 C-1.34 3.35 -0.68 1.7 0 0 Z " fill="#F4FCFA" transform="translate(121,106)"/>
<path d="M0 0 C0.66 0.33 1.32 0.66 2 1 C2.625 4.0625 2.625 4.0625 3 7 C2.01 7 1.02 7 0 7 C-0.93423645 3.98968256 -1.04449911 3.13349732 0 0 Z " fill="#222F4D" transform="translate(98,94)"/>
<path d="M0 0 C0.99 0.99 1.98 1.98 3 3 C2.67 3.99 2.34 4.98 2 6 C0.68 6 -0.64 6 -2 6 C-1.34 4.02 -0.68 2.04 0 0 Z " fill="#DBE0EC" transform="translate(150,79)"/>
<path d="M0 0 C0.66 0.33 1.32 0.66 2 1 C-0.3125 3.5 -0.3125 3.5 -3 6 C-3.99 6 -4.98 6 -6 6 C-4.02 4.02 -2.04 2.04 0 0 Z " fill="#FFEECB" transform="translate(122,73)"/>
<path d="M0 0 C0.99 0.33 1.98 0.66 3 1 C2.01 2.98 1.02 4.96 0 7 C-0.66 6.01 -1.32 5.02 -2 4 C-1.34 2.68 -0.68 1.36 0 0 Z " fill="#D9E3ED" transform="translate(149,48)"/>
</svg>
